<?xml version="1.0" encoding="UTF-8" standalone="no"?>
<!-- Created with Inkscape (http://www.inkscape.org/) -->

<svg
   xmlns:dc="http://purl.org/dc/elements/1.1/"
   xmlns:cc="http://creativecommons.org/ns#"
   xmlns:rdf="http://www.w3.org/1999/02/22-rdf-syntax-ns#"
   xmlns:svg="http://www.w3.org/2000/svg"
   xmlns="http://www.w3.org/2000/svg"
   xmlns:sodipodi="http://sodipodi.sourceforge.net/DTD/sodipodi-0.dtd"
   xmlns:inkscape="http://www.inkscape.org/namespaces/inkscape"
   width="20"
   height="20"
   viewBox="0 0 19.999999 19.999999"
   id="svg2"
   version="1.1"
   inkscape:version="0.91 r13725"
   sodipodi:docname="de_P_mini.svg">
  <defs
     id="defs4" />
  <sodipodi:namedview
     id="base"
     pagecolor="#ffffff"
     bordercolor="#666666"
     borderopacity="1.0"
     inkscape:pageopacity="0.0"
     inkscape:pageshadow="2"
     inkscape:zoom="31.678384"
     inkscape:cx="17.536904"
     inkscape:cy="8.4342419"
     inkscape:document-units="px"
     inkscape:current-layer="layer3"
     showgrid="false"
     inkscape:window-width="1680"
     inkscape:window-height="987"
     inkscape:window-x="-8"
     inkscape:window-y="-8"
     inkscape:window-maximized="1"
     units="px" />
  <metadata
     id="metadata7">
    <rdf:RDF>
      <cc:Work
         rdf:about="">
        <dc:format>image/svg+xml</dc:format>
        <dc:type
           rdf:resource="http://purl.org/dc/dcmitype/StillImage" />
        <dc:title></dc:title>
      </cc:Work>
    </rdf:RDF>
  </metadata>
  <g
     inkscape:label="Calque 1"
     inkscape:groupmode="layer"
     id="layer1"
     transform="translate(0,-1032.3622)" />
  <g
     inkscape:groupmode="layer"
     id="layer2"
     inkscape:label="Layer 1"
     transform="translate(0,-1032.3622)"
     style="display:inline;opacity:1" />
  <g
     inkscape:groupmode="layer"
     id="layer3"
     inkscape:label="Layer 2"
     style="display:inline"
     transform="translate(0,-80)">
    <flowRoot
       xml:space="preserve"
       id="flowRoot4152"
       style="font-style:normal;font-weight:normal;font-size:25px;line-height:125%;font-family:sans-serif;letter-spacing:0px;word-spacing:0px;fill:#000000;fill-opacity:1;stroke:none;stroke-width:1px;stroke-linecap:butt;stroke-linejoin:miter;stroke-opacity:1"><flowRegion
         id="flowRegion4154"><rect
           id="rect4156"
           width="78.53936"
           height="72.478447"
           x="11.364216"
           y="21.46064" /></flowRegion><flowPara
         id="flowPara4158"
         style="font-style:normal;font-variant:normal;font-weight:normal;font-stretch:normal;font-size:90px;font-family:Corleone;-inkscape-font-specification:Corleone;fill:#ffffff">M  </flowPara></flowRoot>    <g
       id="g4292"
       transform="matrix(0.20517317,0,0,0.20517317,-0.15241887,79.630735)">
      <rect
         ry="4.5741181"
         rx="4.1245542"
         y="954.83844"
         x="1.9440002"
         height="96.173637"
         width="95.604942"
         id="rect3431"
         style="fill:#000000;fill-rule:evenodd;stroke:#000000;stroke-width:0.22050583px;stroke-linecap:butt;stroke-linejoin:miter;stroke-opacity:1"
         transform="translate(0,-952.36218)" />
      <g
         transform="translate(2.0228688,-953.34638)"
         id="g4231"
         style="display:inline;opacity:1">
        <rect
           style="opacity:1;fill:#000000;fill-opacity:1;stroke:#ffffff;stroke-width:1;stroke-linejoin:round;stroke-miterlimit:4;stroke-dasharray:none;stroke-opacity:1"
           id="rect4187"
           width="31.567266"
           height="75.508904"
           x="389.12881"
           y="881.50275"
           rx="4.1245499"
           ry="4.57412"
           transform="matrix(0.92826126,0.37192881,-0.37192881,0.92826126,0,0)" />
        <rect
           style="display:inline;opacity:1;fill:#ffffff;fill-opacity:1;stroke:#ffffff;stroke-width:1;stroke-linejoin:round;stroke-miterlimit:4;stroke-dasharray:none;stroke-opacity:1"
           id="rect4187-5"
           width="31.567266"
           height="75.508904"
           x="401.8992"
           y="876.38605"
           rx="4.1245499"
           ry="4.57412"
           transform="matrix(0.92826126,0.37192881,-0.37192881,0.92826126,0,0)" />
        <rect
           style="display:inline;opacity:1;fill:#000000;fill-opacity:1;stroke:#ffffff;stroke-width:1;stroke-linejoin:round;stroke-miterlimit:4;stroke-dasharray:none;stroke-opacity:1"
           id="rect4187-5-2"
           width="31.567266"
           height="75.508904"
           x="414.66956"
           y="871.26929"
           rx="4.1245499"
           ry="4.57412"
           transform="matrix(0.92826126,0.37192881,-0.37192881,0.92826126,0,0)" />
      </g>
      <g
         id="flowRoot4160"
         style="font-style:normal;font-weight:normal;font-size:25px;line-height:125%;font-family:sans-serif;letter-spacing:0px;word-spacing:0px;fill:#ffffff;fill-opacity:1;stroke:#000000;stroke-width:0.80085146;stroke-linecap:butt;stroke-linejoin:miter;stroke-miterlimit:4;stroke-dasharray:none;stroke-opacity:1"
         transform="matrix(1.3122036,0,0,1.3122036,-112.56562,-12.011534)">
        <path
           sodipodi:nodetypes="ccccccscscsccccssccsccsssssccss"
           inkscape:connector-curvature="0"
           id="path4279"
           style="font-style:normal;font-variant:normal;font-weight:normal;font-stretch:normal;font-size:70px;font-family:Corleone;-inkscape-font-specification:Corleone;fill:#ffffff;stroke:#000000;stroke-width:0.80085146;stroke-miterlimit:4;stroke-dasharray:none;stroke-opacity:1"
           d="m 154.5851,19.799159 -8.01485,9.160156 -8.10248,0 0,-1.948242 c -0.0228,-3.691407 -1.49253,-6.095378 -4.40918,-7.211914 z m -17.27944,29.121093 c 0,2.369792 -0.63802,4.158529 -1.91406,5.366211 -1.50391,1.412761 -3.61165,2.119141 -6.32324,2.119141 l -4.23828,0 0,15.620117 c 0,3.28125 1.32161,5.423177 3.96484,6.425781 l 0,0.170899 -18.18359,0 0,-0.170899 c 2.64323,-1.048177 3.96484,-3.201497 3.96484,-6.45996 l 0,-46.108399 c 0,-3.28125 -1.07096,-5.252279 -3.21289,-5.913086 l 0,-0.170898 16.64551,0 c 3.16732,0 5.40039,0.524088 6.69922,1.572265 1.13932,0.934245 1.89127,2.096355 2.25586,3.486328 0.22786,0.888672 0.34179,2.290039 0.34179,4.204102 z m -9.94628,-4.409179 0,-13.330078 c 0,-1.458333 -0.55827,-2.1875 -1.67481,-2.1875 l -0.85449,0 0,17.875976 0.58105,0 c 1.29883,0 1.94825,-0.786133 1.94825,-2.358398 z" />
      </g>
    </g>
  </g>
</svg>
