<?xml version="1.0" encoding="UTF-8" standalone="no"?>
<!-- Created with Inkscape (http://www.inkscape.org/) -->

<svg
   xmlns:dc="http://purl.org/dc/elements/1.1/"
   xmlns:cc="http://creativecommons.org/ns#"
   xmlns:rdf="http://www.w3.org/1999/02/22-rdf-syntax-ns#"
   xmlns:svg="http://www.w3.org/2000/svg"
   xmlns="http://www.w3.org/2000/svg"
   xmlns:sodipodi="http://sodipodi.sourceforge.net/DTD/sodipodi-0.dtd"
   xmlns:inkscape="http://www.inkscape.org/namespaces/inkscape"
   width="20"
   height="20"
   viewBox="0 0 19.999999 19.999999"
   id="svg2"
   version="1.1"
   inkscape:version="0.91 r13725"
   sodipodi:docname="de_wazabi_mini.svg">
  <defs
     id="defs4" />
  <sodipodi:namedview
     id="base"
     pagecolor="#ffffff"
     bordercolor="#666666"
     borderopacity="1.0"
     inkscape:pageopacity="0.0"
     inkscape:pageshadow="2"
     inkscape:zoom="22.4"
     inkscape:cx="1.2713042"
     inkscape:cy="12.937908"
     inkscape:document-units="px"
     inkscape:current-layer="layer2"
     showgrid="false"
     inkscape:window-width="1280"
     inkscape:window-height="961"
     inkscape:window-x="-4"
     inkscape:window-y="-4"
     inkscape:window-maximized="1"
     units="px" />
  <metadata
     id="metadata7">
    <rdf:RDF>
      <cc:Work
         rdf:about="">
        <dc:format>image/svg+xml</dc:format>
        <dc:type
           rdf:resource="http://purl.org/dc/dcmitype/StillImage" />
        <dc:title></dc:title>
      </cc:Work>
    </rdf:RDF>
  </metadata>
  <g
     inkscape:label="Calque 1"
     inkscape:groupmode="layer"
     id="layer1"
     transform="translate(0,-1032.3622)">
    <rect
       style="fill:#000000;fill-rule:evenodd;stroke:#000000;stroke-width:0.04470304px;stroke-linecap:butt;stroke-linejoin:miter;stroke-opacity:1"
       id="rect3431"
       width="19.381941"
       height="19.497232"
       x="0.36248738"
       y="1032.6842"
       rx="0.83616877"
       ry="0.92730862" />
  </g>
  <g
     inkscape:groupmode="layer"
     id="layer2"
     inkscape:label="Layer 1"
     transform="translate(0,-1032.3622)"
     style="opacity:1">
    <path
       inkscape:connector-curvature="0"
       id="path5627-8"
       d="m 8.2121118,1034.4749 c -0.00537,-10e-4 -0.00996,-10e-4 -0.014086,5e-4 -0.00548,0 -0.010282,0 -0.015018,0.014 -0.031094,0.044 -0.029661,1.1856 0.00213,1.6246 0.014018,0.194 0.027623,0.6751 0.030229,1.0691 0.00528,0.7962 0.0147,0.7419 -0.1708856,0.9864 -0.1237234,0.1629 -0.1798267,0.2404 -0.2895701,0.399 -0.2375835,0.3433 -0.5085593,0.6899 -0.8033699,1.0277 -0.083466,0.096 -0.2163725,0.2492 -0.2952051,0.3411 -0.078831,0.092 -0.1989692,0.2114 -0.2670338,0.2653 -0.068073,0.054 -0.1237521,0.1109 -0.1237521,0.1273 0,0.016 -0.017547,0.051 -0.039065,0.079 -0.021509,0.027 -0.053786,0.095 -0.071736,0.1492 -0.064468,0.1974 -0.1494439,0.4004 -0.2193334,0.5242 -0.070429,0.1246 -0.1542129,0.3781 -0.1701452,0.5151 -0.00904,0.077 -0.024527,0.1459 -0.034364,0.1513 -0.00983,0 -0.1147425,-0.013 -0.2332363,-0.034 -0.2913399,-0.06 -0.5391731,-0.081 -0.9455162,-0.082 -0.3429331,0 -0.6022458,0.025 -0.6614062,0.068 -0.017461,0.013 -0.046728,0.055 -0.064967,0.094 -0.01825,0.039 -0.076275,0.1109 -0.12883,0.162 -0.052546,0.051 -0.125839,0.1355 -0.1630003,0.1883 -0.037161,0.052 -0.1084849,0.1359 -0.1584913,0.1841 -0.050017,0.049 -0.097014,0.1059 -0.1044169,0.1284 -0.0074,0.022 -0.025162,0.08 -0.039431,0.129 -0.02695,0.092 -0.085467,0.1398 -0.2014985,0.165 -0.064315,0.014 -0.092217,0.066 -0.043008,0.081 0.013132,0 0.048785,0.051 0.079063,0.1034 0.047631,0.084 0.085082,0.1109 0.278677,0.2045 0.1230218,0.06 0.2431599,0.1234 0.267043,0.1421 0.023883,0.019 0.081707,0.049 0.128445,0.067 0.046738,0.019 0.1012837,0.042 0.1213106,0.054 0.1103792,0.059 0.2705815,0.1097 0.3427217,0.1097 0.045276,10e-5 0.1050912,0 0.1329544,0.012 0.050478,0.013 0.050747,0.018 0.069669,1.4484 0.010444,0.79 0.026114,1.5037 0.034931,1.586 l 0.016141,0.1497 0.020663,-0.1391 c 0.011391,-0.076 0.027411,-0.7708 0.035681,-1.543 0.00826,-0.7722 0.021383,-1.4095 0.029104,-1.4163 0.00769,-0.013 0.1005907,0 0.206383,0.029 0.1057929,0.022 0.279821,0.057 0.3866615,0.076 0.106831,0.02 0.2413332,0.044 0.2989649,0.055 0.2574374,0.047 0.4722339,0.193 0.5909675,0.4012 0.031373,0.055 0.069303,0.1072 0.084506,0.1159 0.015209,0.013 0.034229,0.039 0.042256,0.067 0.00798,0.029 0.1553467,0.1751 0.3273182,0.3264 0.3526448,0.3103 0.5376437,0.533 0.5376437,0.6472 0,0.076 -0.1391646,0.3242 -0.2711676,0.4831 -0.089995,0.1084 -0.2087674,0.2677 -0.2882636,0.387 -0.03395,0.051 -0.085332,0.1146 -0.1141755,0.1418 -0.028845,0.027 -0.069775,0.082 -0.09089,0.1234 -0.061939,0.1209 -0.1563563,0.2623 -0.2052483,0.3091 -0.024978,0.024 -0.062824,0.077 -0.08413,0.1184 -0.062535,0.1208 -0.151858,0.2525 -0.2189688,0.3227 -0.034363,0.036 -0.062535,0.077 -0.062535,0.093 0,0.015 -0.021248,0.051 -0.047133,0.08 -0.025883,0.029 -0.054285,0.077 -0.063102,0.1084 -0.00885,0.031 -0.031229,0.067 -0.049949,0.081 -0.01872,0.014 -0.034181,0.051 -0.034181,0.082 0,0.047 0.029114,0.075 0.1611253,0.1523 0.3570577,0.2102 0.483599,0.273 0.5772673,0.2863 0.053968,0.012 0.1164264,0.029 0.1387807,0.046 0.026614,0.021 0.07688,0.03 0.1457222,0.026 0.082371,0 0.1113788,-0.017 0.1338967,-0.057 0.038199,-0.067 0.3756716,-0.366 0.4142652,-0.366 0.01668,0 0.048373,-0.031 0.07042,-0.069 0.050459,-0.086 0.2736104,-0.2951 0.314733,-0.2951 0.047133,0 0.05618,0.1912 0.070611,1.4967 0.0072,0.6526 0.020807,1.2684 0.030239,1.3683 0.016421,0.1741 0.017969,0.1777 0.035863,0.086 0.010282,-0.054 0.025499,-0.8128 0.033989,-1.689 l 0.015403,-1.5929 0.090698,-0.086 c 0.049814,-0.047 0.116349,-0.1196 0.1479822,-0.1604 0.031633,-0.041 0.1834026,-0.2145 0.3372699,-0.385 0.1538666,-0.1705 0.3246072,-0.3632 0.379335,-0.4281 0.1166095,-0.1385 0.2113056,-0.1998 0.2792441,-0.1807 0.062151,0.017 0.4342269,0.3487 0.5226255,0.4655 0.037528,0.05 0.090553,0.1122 0.1179256,0.1402 0.05069,0.051 0.2989842,0.2051 0.489194,0.3034 0.057873,0.03 0.1302245,0.073 0.1607515,0.097 0.03053,0.024 0.113821,0.068 0.185163,0.1009 0.154809,0.069 0.288945,0.074 0.470224,0.017 0.496867,-0.1526 0.509262,-0.1523 0.674166,0.021 0.06877,0.072 0.145424,0.1668 0.170328,0.2098 0.06158,0.106 0.10717,0.1374 0.162624,0.111 0.07254,-0.035 0.309579,-0.2574 0.291456,-0.2734 -0.0092,-0.012 -0.07928,-0.022 -0.155684,-0.031 -0.07935,-0.013 -0.150914,-0.031 -0.16676,-0.05 -0.01524,-0.019 -0.03538,-0.1447 -0.04488,-0.2804 -0.01997,-0.2856 -0.01901,-0.2876 0.178028,-0.367 0.188202,-0.076 0.370058,-0.062 0.467976,0.034 0.07741,0.076 0.08855,0.161 0.0308,0.2337 -0.02099,0.026 -0.03444,0.079 -0.03024,0.1159 l 0.0075,0.069 0.194356,-0.1492 c 0.106846,-0.082 0.248717,-0.1873 0.315492,-0.2338 0.06678,-0.046 0.356432,-0.2876 0.64355,-0.5357 0.287128,-0.248 0.55622,-0.472 0.597929,-0.4975 l 0.07568,-0.046 0.373519,0.034 c 0.205354,0.019 0.438918,0.037 0.519048,0.042 0.08012,0 0.168385,0.014 0.196239,0.019 0.0506,0.012 0.05061,0.012 0.06967,1.6511 0.01047,0.9028 0.02621,1.7135 0.03475,1.8018 l 0.01539,0.1604 0.01878,-0.1497 c 0.01034,-0.082 0.02858,-0.852 0.04037,-1.7104 0.01321,-0.9609 0.03097,-1.5827 0.0462,-1.6176 0.02471,-0.056 0.02485,-0.056 0.336894,-0.064 0.404583,-0.012 0.411563,-0.014 0.574266,-0.3069 0.01957,-0.035 0.0747,-0.1122 0.122438,-0.1709 0.04773,-0.059 0.08677,-0.1147 0.08677,-0.1246 0,-0.017 0.218265,-0.3601 0.241495,-0.3785 0.0074,0 0.0389,-0.054 0.07004,-0.1072 0.03116,-0.054 0.0832,-0.1391 0.115495,-0.1916 0.08285,-0.1346 0.0797,-0.2571 -0.0081,-0.3142 -0.03673,-0.024 -0.110522,-0.05 -0.163944,-0.059 -0.326685,-0.05 -1.18858,-0.2416 -1.487302,-0.3316 -0.0434,-0.014 -0.11167,-0.034 -0.151733,-0.045 -0.574756,-0.1687 -0.711625,-0.2237 -0.842618,-0.339 -0.129925,-0.1146 -0.174306,-0.1874 -0.200932,-0.3307 -0.01134,-0.061 -0.02278,-0.1197 -0.02554,-0.132 -0.016,-0.069 0.0041,-0.1184 0.04788,-0.1184 0.05797,0 0.08632,-0.036 0.05577,-0.07 -0.0125,-0.014 -0.016,-0.085 -0.0077,-0.1559 0.02306,-0.1989 -0.03877,-0.614 -0.131829,-0.8853 -0.04514,-0.1317 -0.128069,-0.458 -0.155492,-0.6114 -0.01246,-0.07 -0.03419,-0.1648 -0.04826,-0.2118 -0.03796,-0.1268 -0.03208,-0.2522 0.01614,-0.3451 0.06114,-0.1171 0.246197,-0.3856 0.286945,-0.4154 0.01896,-0.014 0.03451,-0.036 0.03456,-0.049 5.7e-5,-0.014 0.04098,-0.072 0.09107,-0.131 0.0501,-0.058 0.103854,-0.1323 0.119433,-0.1631 0.01559,-0.031 0.05974,-0.089 0.09804,-0.1282 0.03829,-0.04 0.08196,-0.097 0.09707,-0.1283 0.01513,-0.031 0.05917,-0.089 0.09785,-0.1284 0.03867,-0.04 0.08409,-0.1021 0.100839,-0.139 0.01675,-0.037 0.06231,-0.093 0.101412,-0.127 0.0391,-0.034 0.07129,-0.07 0.07136,-0.082 5.7e-5,-0.013 0.0166,-0.051 0.0368,-0.085 0.08307,-0.1403 0.02781,-0.1795 -0.710404,-0.5047 -0.216738,-0.096 -0.400334,-0.1826 -0.408073,-0.1937 -0.03239,-0.046 -0.105737,-0.012 -0.266101,0.1247 -0.09347,0.08 -0.249891,0.2238 -0.347596,0.3208 -0.104603,0.1034 -0.196747,0.1763 -0.223842,0.1763 -0.05202,0 -0.0847,-0.084 -0.11906,-0.3046 -0.01147,-0.073 -0.03733,-0.2059 -0.05765,-0.294 -0.09548,-0.4144 -0.178991,-1.4218 -0.203942,-2.462 l -0.01466,-0.6126 -0.172202,-0.012 c -0.09474,0 -0.191462,-0.017 -0.214825,-0.026 -0.03636,-0.014 -0.04244,0 -0.04244,0.066 0,0.1022 -0.0381,0.2237 -0.07644,0.2447 -0.02093,0.012 -0.01762,0.025 0.01184,0.051 0.05797,0.051 0.05917,0.4833 0.0015,0.534 -0.03158,0.027 -0.03326,0.04 -0.0085,0.066 0.02129,0.022 0.037,0.192 0.05165,0.5607 0.05421,1.3652 0.05674,1.4023 0.09877,1.4583 0.02207,0.03 0.04751,0.095 0.05652,0.1439 0.0091,0.05 0.03141,0.101 0.04977,0.1147 0.01836,0.014 0.03343,0.034 0.03343,0.045 0,0.012 0.04232,0.1 0.09408,0.1961 0.05176,0.097 0.102222,0.2092 0.112293,0.2499 0.01009,0.041 0.03888,0.097 0.06385,0.1249 0.02498,0.029 0.04525,0.067 0.04525,0.088 0,0.02 0.01714,0.05 0.03793,0.065 0.0208,0.015 0.05345,0.061 0.07268,0.1009 0.01922,0.04 0.06933,0.1084 0.111358,0.1503 0.09562,0.096 0.232227,0.3466 0.259715,0.4767 0.01147,0.054 0.03892,0.1209 0.06102,0.1491 0.02211,0.027 0.04019,0.065 0.04019,0.081 0,0.017 0.01421,0.046 0.03154,0.065 0.06431,0.069 0.235748,0.492 0.334078,0.8248 0.247641,0.8379 0.318674,1.1324 0.318868,1.3202 1.7e-4,0.099 0.008,0.1234 0.04019,0.1255 0.0337,0 0.03315,0 -0.0034,0.013 -0.0386,0.012 -0.04296,0.035 -0.03981,0.2384 0.0046,0.299 -0.02797,0.375 -0.175961,0.411 -0.08686,0.021 -0.136551,0.02 -0.287138,-0.012 -0.100154,-0.02 -0.229113,-0.044 -0.286753,-0.054 -0.05763,-0.013 -0.122662,-0.034 -0.144406,-0.052 -0.03628,-0.032 -0.04301,-0.032 -0.08244,0 -0.03617,0.029 -0.108815,0.034 -0.457465,0.032 -0.422938,0 -0.503943,-0.012 -0.602429,-0.051 -0.04414,-0.019 -0.07231,-0.016 -0.133511,0.013 -0.04269,0.02 -0.121653,0.045 -0.175587,0.057 -0.163039,0.036 -0.373335,0.1491 -0.436611,0.2336 -0.03211,0.042 -0.07583,0.1405 -0.09729,0.2169 -0.02145,0.076 -0.04905,0.1727 -0.06122,0.2138 -0.03707,0.1255 -0.0289,1.0583 0.01,1.1401 0.04984,0.1047 0.166635,0.1809 0.300839,0.1952 0.342,0.036 0.612948,0.1209 0.612948,0.1914 8e-6,0.018 -0.01532,0.057 -0.03417,0.091 -0.01886,0.034 -0.07859,0.1424 -0.132772,0.2423 -0.135282,0.2496 -0.290772,0.4242 -0.730873,0.8208 -0.428169,0.386 -0.586276,0.5049 -0.670982,0.5049 -0.180943,0 -0.530241,-0.2252 -0.7128464,-0.4596 -0.1350119,-0.1734 -0.2863205,-0.4087 -0.3162423,-0.4918 -0.016934,-0.047 -0.040777,-0.096 -0.052958,-0.1097 -0.028575,-0.031 -0.065381,-0.1401 -0.093514,-0.2748 -0.012276,-0.059 -0.034095,-0.6215 -0.048641,-1.2503 -0.014538,-0.6289 -0.031797,-1.148 -0.038306,-1.1537 -0.02244,-0.02 -0.094889,0.035 -0.2159594,0.1642 -0.2930124,0.3125 -0.4899536,0.5301 -0.5462774,0.6035 -0.3080402,0.4013 -0.8312719,0.944 -1.0234626,1.0612 -0.096918,0.06 -0.099485,0.06 -0.1346465,0.019 -0.082909,-0.097 0.00683,-0.5922 0.1738932,-0.9592 0.043354,-0.095 0.086746,-0.2109 0.096341,-0.2569 0.023123,-0.1109 0.1766153,-0.4619 0.3182999,-0.728 0.044046,-0.082 0.091169,-0.1841 0.104792,-0.2252 0.013616,-0.041 0.042728,-0.1184 0.064786,-0.1711 0.040901,-0.099 0.036815,-0.2428 -0.00808,-0.2823 -0.025018,-0.022 -0.1110709,0.1255 -0.1838457,0.3154 -0.022296,0.059 -0.072487,0.154 -0.111552,0.2128 -0.1049366,0.1579 -0.1579248,0.2612 -0.2163351,0.422 -0.028786,0.08 -0.1018595,0.238 -0.1624326,0.3528 -0.060574,0.1147 -0.1255897,0.2397 -0.1444159,0.2773 -0.074043,0.1483 -0.364249,0.3617 -0.4679743,0.3441 -0.048314,-0.012 -0.073284,-0.1209 -0.076052,-0.3432 -0.00146,-0.1147 0.00557,-0.1442 0.034555,-0.1442 0.026075,0 0.03643,-0.024 0.03643,-0.082 0,-0.1792 0.030922,-0.3451 0.064227,-0.3451 0.025999,0 0.032864,-0.056 0.032864,-0.2674 0,-0.253 0.00269,-0.2672 0.048632,-0.2672 0.046171,0 0.048449,-0.014 0.048449,-0.2885 0,-0.2745 0.00251,-0.2888 0.048642,-0.2888 0.040469,0 0.048641,-0.014 0.048641,-0.086 0,-0.071 -0.00818,-0.086 -0.048641,-0.086 -0.02698,0 -0.048642,-0.015 -0.048642,-0.032 0,-0.018 -0.021469,-0.032 -0.048449,-0.032 -0.045747,0 -0.048632,0.015 -0.048632,0.2459 0,0.2317 -0.00269,0.2459 -0.048449,0.2459 -0.062247,0 -0.068198,0.085 -0.00616,0.089 0.03895,0 0.03895,0 -0.00133,0.012 -0.03973,0.013 -0.043218,0.034 -0.036431,0.2542 0.0074,0.2409 0.00673,0.2441 -0.047143,0.2441 -0.053526,-10e-5 -0.054641,0 -0.054641,0.2489 0,0.1781 -0.00904,0.2556 -0.031739,0.2727 -0.029413,0.022 -0.064717,0.089 -0.1772793,0.3336 -0.1452129,0.3163 -0.3071078,0.3722 -0.4548211,0.1568 -0.052016,-0.076 -0.060342,-0.1034 -0.038314,-0.1269 0.015488,-0.016 0.04292,-0.03 0.060852,-0.03 0.071524,0 0.088332,-0.082 0.056141,-0.2748 -0.019307,-0.1159 -0.031191,-0.4141 -0.031547,-0.7943 -9.731e-4,-0.6581 0.021231,-0.8357 0.1412224,-1.1462 0.087573,-0.2267 0.3586729,-0.672 0.506088,-0.8315 0.032605,-0.035 0.072592,-0.086 0.088832,-0.1134 0.016228,-0.028 0.096955,-0.1268 0.1795189,-0.2214 0.082573,-0.095 0.1705482,-0.2072 0.1954895,-0.25 0.02495,-0.042 0.053449,-0.082 0.063295,-0.088 0.00983,0 0.031094,-0.046 0.047132,-0.09 0.016036,-0.044 0.036737,-0.082 0.046006,-0.086 0.00922,0 0.05922,-0.079 0.1111781,-0.167 0.051949,-0.089 0.1368004,-0.2176 0.1883448,-0.2877 0.051555,-0.07 0.093774,-0.1372 0.093898,-0.1495 1.716e-4,-0.013 0.038267,-0.065 0.08488,-0.1159 0.046613,-0.051 0.08488,-0.1097 0.08488,-0.1299 0,-0.041 0.3450768,-0.5529 0.4830028,-0.717 0.1850467,-0.2201 0.198719,-0.2656 0.1994306,-0.6669 0,-0.1977 -0.011902,-0.5403 -0.027229,-0.7614 -0.022296,-0.3215 -0.021788,-0.4085 0.00279,-0.4347 0.023864,-0.025 0.024267,-0.036 0.00152,-0.049 -0.019307,-0.012 -0.037382,-0.136 -0.052958,-0.3673 -0.013018,-0.1931 -0.033893,-0.3992 -0.046383,-0.458 -0.0125,-0.059 -0.035363,-0.2512 -0.05071,-0.4276 -0.033267,-0.3826 -0.04769,-0.4301 -0.1590583,-0.5252 -0.03993,-0.034 -0.06315,-0.051 -0.079245,-0.055 z m 4.2459422,10.5483 0.175577,0.014 c 0.337856,0.027 0.864403,0.1146 0.934448,0.154 0.09855,0.056 0.06121,0.1587 -0.139714,0.383 -0.06317,0.071 -0.139433,0.1709 -0.169394,0.223 -0.06043,0.1047 -0.282071,0.3223 -0.328819,0.3223 -0.01646,0 -0.04364,0.015 -0.06027,0.032 -0.06102,0.065 -0.11906,0.029 -0.195308,-0.1209 -0.03325,-0.065 -0.08307,-0.081 -0.254639,-0.082 -0.117514,0 -0.197575,0.015 -0.504406,0.097 -0.129434,0.035 -0.144337,0.035 -0.180085,0 -0.03576,-0.031 -0.03259,-0.045 0.03699,-0.169 0.0417,-0.073 0.13632,-0.2117 0.210325,-0.3058 0.07402,-0.093 0.164607,-0.2126 0.201316,-0.2634 0.0367,-0.051 0.113351,-0.1362 0.170328,-0.19 l 0.103655,-0.099 z"
       style="display:inline;opacity:0.75;fill:#800000;fill-opacity:1;stroke:none;stroke-width:0.35433072;stroke-linejoin:round;stroke-miterlimit:4;stroke-dasharray:none;stroke-opacity:1" />
  </g>
</svg>
