<?xml version="1.0" encoding="UTF-8" standalone="no"?>
<!-- Created with Inkscape (http://www.inkscape.org/) -->

<svg
   xmlns:dc="http://purl.org/dc/elements/1.1/"
   xmlns:cc="http://creativecommons.org/ns#"
   xmlns:rdf="http://www.w3.org/1999/02/22-rdf-syntax-ns#"
   xmlns:svg="http://www.w3.org/2000/svg"
   xmlns="http://www.w3.org/2000/svg"
   xmlns:sodipodi="http://sodipodi.sourceforge.net/DTD/sodipodi-0.dtd"
   xmlns:inkscape="http://www.inkscape.org/namespaces/inkscape"
   width="100"
   height="100"
   viewBox="0 0 99.999997 99.999997"
   id="svg2"
   version="1.1"
   inkscape:version="0.91 r13725"
   sodipodi:docname="de_wazabi.svg">
  <defs
     id="defs4" />
  <sodipodi:namedview
     id="base"
     pagecolor="#ffffff"
     bordercolor="#666666"
     borderopacity="1.0"
     inkscape:pageopacity="0.0"
     inkscape:pageshadow="2"
     inkscape:zoom="5.6"
     inkscape:cx="64.489798"
     inkscape:cy="52.955378"
     inkscape:document-units="px"
     inkscape:current-layer="layer2"
     showgrid="false"
     inkscape:window-width="1280"
     inkscape:window-height="961"
     inkscape:window-x="-4"
     inkscape:window-y="-4"
     inkscape:window-maximized="1"
     units="px" />
  <metadata
     id="metadata7">
    <rdf:RDF>
      <cc:Work
         rdf:about="">
        <dc:format>image/svg+xml</dc:format>
        <dc:type
           rdf:resource="http://purl.org/dc/dcmitype/StillImage" />
        <dc:title></dc:title>
      </cc:Work>
    </rdf:RDF>
  </metadata>
  <g
     inkscape:label="Calque 1"
     inkscape:groupmode="layer"
     id="layer1"
     transform="translate(0,-952.36223)">
    <rect
       style="fill:#000000;fill-rule:evenodd;stroke:#000000;stroke-width:0.22050583px;stroke-linecap:butt;stroke-linejoin:miter;stroke-opacity:1"
       id="rect3431"
       width="95.604942"
       height="96.173637"
       x="1.6914601"
       y="954.45966"
       rx="4.1245542"
       ry="4.5741181" />
  </g>
  <g
     inkscape:groupmode="layer"
     id="layer2"
     inkscape:label="Layer 1"
     transform="translate(0,-952.36223)"
     style="opacity:1">
    <path
       inkscape:connector-curvature="0"
       id="path5627-8"
       d="m 40.411157,963.29263 c -0.02652,-0.005 -0.04909,-0.005 -0.06948,0.002 -0.02705,0.0106 -0.0507,0.0327 -0.07408,0.0652 -0.15338,0.21361 -0.146308,5.84844 0.0105,8.01394 0.06915,0.95711 0.136259,3.33011 0.149113,5.27331 0.02609,3.92764 0.07251,3.65934 -0.842924,4.86546 -0.610289,0.80408 -0.887028,1.18606 -1.428357,1.96821 -1.171924,1.69331 -2.508561,3.40307 -3.962768,5.06939 -0.411716,0.47177 -1.067297,1.22911 -1.456153,1.68272 -0.38885,0.45361 -0.981451,1.0425 -1.317192,1.30833 -0.335784,0.26581 -0.610429,0.54833 -0.610429,0.62807 0,0.0797 -0.08655,0.25403 -0.192699,0.38744 -0.106097,0.13341 -0.265308,0.46469 -0.353853,0.73573 -0.317998,0.97357 -0.737159,1.97539 -1.081902,2.58568 -0.347404,0.61489 -0.760683,1.86549 -0.839272,2.54069 -0.04458,0.384 -0.120985,0.7201 -0.169506,0.7464 -0.04852,0.027 -0.565989,-0.05 -1.150481,-0.1681 -1.437087,-0.2921 -2.659569,-0.399 -4.66393,-0.4069 -1.69158,-0.012 -2.970687,0.1259 -3.262506,0.3377 -0.08613,0.063 -0.230495,0.2687 -0.320465,0.4583 -0.09002,0.1897 -0.376239,0.5493 -0.635477,0.7994 -0.259188,0.25 -0.620724,0.6681 -0.804029,0.929 -0.183306,0.2611 -0.535119,0.6698 -0.781787,0.9079 -0.246716,0.238 -0.478539,0.523 -0.515057,0.6329 -0.03652,0.1099 -0.124118,0.3961 -0.194499,0.6363 -0.132938,0.4534 -0.42158,0.6899 -0.993928,0.814 -0.317241,0.068 -0.454874,0.3289 -0.212142,0.4013 0.06478,0.02 0.240645,0.2487 0.389993,0.5097 0.234953,0.4109 0.419682,0.5473 1.374625,1.0091 0.606829,0.2935 1.19943,0.6084 1.317238,0.7006 0.117809,0.092 0.403036,0.243 0.633578,0.3344 0.230545,0.091 0.499598,0.2096 0.598389,0.2619 0.544463,0.2882 1.334692,0.542 1.690537,0.5433 0.223334,8e-4 0.518379,0.027 0.655822,0.06 0.248992,0.059 0.250318,0.085 0.343656,7.1444 0.05151,3.8967 0.128809,7.4171 0.172304,7.8232 l 0.07962,0.7382 0.101923,-0.686 c 0.0562,-0.3771 0.135213,-3.802 0.176003,-7.611 0.04078,-3.8092 0.105477,-6.9528 0.143559,-6.9863 0.03794,-0.034 0.496183,0.03 1.018022,0.1419 0.521841,0.1111 1.380268,0.2812 1.907278,0.3769 0.526962,0.096 1.19042,0.2169 1.474698,0.2692 1.269857,0.2332 2.32938,0.9524 2.915055,1.9789 0.154755,0.2711 0.341851,0.5281 0.41684,0.5708 0.07502,0.042 0.168837,0.1914 0.208438,0.3304 0.03936,0.139 0.766276,0.8637 1.614557,1.6101 1.739484,1.5305 2.652025,2.6292 2.652025,3.1925 0,0.3759 -0.686455,1.599 -1.337584,2.3827 -0.443917,0.5343 -1.029783,1.3203 -1.421912,1.9087 -0.167463,0.2511 -0.420917,0.5664 -0.563194,0.6997 -0.142281,0.1334 -0.344178,0.408 -0.448328,0.6102 -0.305524,0.5932 -0.771256,1.2941 -1.012425,1.5245 -0.123214,0.1176 -0.309889,0.3802 -0.414985,0.5832 -0.308465,0.5957 -0.749067,1.2457 -1.080103,1.5922 -0.169506,0.1773 -0.308465,0.3836 -0.308465,0.4583 0,0.075 -0.104809,0.2527 -0.232489,0.3956 -0.127673,0.1429 -0.267773,0.3842 -0.311263,0.5368 -0.04364,0.1525 -0.154044,0.333 -0.246384,0.4003 -0.09234,0.067 -0.168603,0.251 -0.168603,0.4071 0,0.233 0.143609,0.368 0.79478,0.7513 1.761252,1.0369 2.38544,1.3468 2.847476,1.412 0.266205,0.037 0.574294,0.1396 0.684561,0.2274 0.131276,0.104 0.379226,0.149 0.718801,0.1273 0.40631,-0.025 0.549396,-0.088 0.66047,-0.2846 0.188427,-0.3346 1.853068,-1.8052 2.043438,-1.8052 0.08228,0 0.23861,-0.1517 0.347359,-0.3367 0.248898,-0.4239 1.349633,-1.456 1.552478,-1.456 0.232489,0 0.277116,0.9429 0.348302,7.3825 0.03556,3.2194 0.102634,6.2566 0.14916,6.7498 0.081,0.8586 0.08864,0.8763 0.176899,0.4217 0.0507,-0.261 0.125783,-4.0098 0.167659,-8.3314 l 0.07598,-7.8572 0.447381,-0.4217 c 0.245717,-0.232 0.573913,-0.5883 0.729949,-0.7913 0.156032,-0.203 0.904667,-1.0578 1.663645,-1.8988 0.758975,-0.8411 1.601184,-1.7913 1.871139,-2.1118 0.575195,-0.6829 1.042303,-0.9852 1.377422,-0.8915 0.306569,0.086 2.141903,1.7204 2.577945,2.2961 0.185112,0.2444 0.446668,0.5553 0.581692,0.6917 0.25004,0.2524 1.474794,1.012 2.413038,1.4966 0.285466,0.1476 0.642358,0.3641 0.792935,0.4814 0.150582,0.1172 0.561444,0.3409 0.913353,0.4967 0.763621,0.3382 1.425273,0.3637 2.319464,0.089 2.450887,-0.753 2.512021,-0.7512 3.325444,0.1064 0.339197,0.3575 0.717332,0.8231 0.840169,1.0351 0.303724,0.5242 0.528622,0.6772 0.80218,0.545 0.357791,-0.1731 1.527055,-1.2696 1.437654,-1.3485 -0.04552,-0.04 -0.391032,-0.1099 -0.767937,-0.1548 -0.391415,-0.047 -0.744416,-0.1523 -0.822574,-0.2464 -0.07522,-0.09 -0.174532,-0.7134 -0.22139,-1.3834 -0.09851,-1.4087 -0.09372,-1.4185 0.878161,-1.81 0.928334,-0.3739 1.825373,-0.3087 2.308368,0.1673 0.381834,0.3762 0.436805,0.7942 0.151908,1.1525 -0.103525,0.1302 -0.16984,0.3866 -0.149113,0.5742 l 0.03698,0.3394 0.958693,-0.7358 c 0.527011,-0.4047 1.226843,-0.9238 1.556225,-1.1533 0.329379,-0.2295 1.758167,-1.4184 3.174434,-2.642 1.416312,-1.2236 2.743655,-2.3282 2.949391,-2.4543 l 0.373299,-0.2292 1.842445,0.168 c 1.012949,0.092 2.165045,0.187 2.560302,0.2112 0.395258,0.024 0.830588,0.066 0.967984,0.091 0.249566,0.048 0.249655,0.054 0.34366,8.1445 0.05178,4.4532 0.129287,8.4524 0.171399,8.8876 l 0.07593,0.7911 0.09262,-0.7381 c 0.05095,-0.4061 0.140957,-4.2029 0.199148,-8.4373 0.06516,-4.7396 0.152763,-7.8069 0.227889,-7.9789 0.121931,-0.279 0.122598,-0.2785 1.661795,-0.3156 1.995678,-0.049 2.030111,-0.067 2.832674,-1.514 0.09651,-0.174 0.368511,-0.5535 0.603936,-0.8433 0.235477,-0.29 0.427985,-0.5655 0.427985,-0.6118 0,-0.089 1.076636,-1.7761 1.191226,-1.8671 0.03652,-0.029 0.191839,-0.2667 0.345503,-0.5277 0.153665,-0.261 0.410431,-0.6858 0.569689,-0.9445 0.408684,-0.6643 0.393173,-1.2682 -0.03984,-1.5498 -0.181173,-0.1179 -0.545173,-0.2473 -0.808681,-0.2871 -1.611427,-0.2438 -5.862881,-1.192 -7.336392,-1.6363 -0.214086,-0.065 -0.550817,-0.1647 -0.748447,-0.2227 -2.835091,-0.832 -3.510216,-1.1032 -4.15636,-1.6721 -0.640886,-0.5642 -0.859805,-0.9246 -0.991133,-1.6314 -0.05578,-0.3001 -0.112356,-0.5928 -0.125964,-0.6509 -0.07896,-0.3361 0.02041,-0.5807 0.236185,-0.5807 0.285938,0 0.425753,-0.1765 0.275124,-0.3475 -0.06166,-0.069 -0.07892,-0.4157 -0.03794,-0.7691 0.113734,-0.9816 -0.191221,-3.0284 -0.650269,-4.3671 -0.22267,-0.6494 -0.631727,-2.2591 -0.766991,-3.0155 -0.06128,-0.34281 -0.168651,-0.81285 -0.238035,-1.04487 -0.187242,-0.62602 -0.158214,-1.24432 0.07962,-1.7023 0.301637,-0.58073 1.214414,-1.90208 1.41541,-2.04896 0.09349,-0.0682 0.170217,-0.17767 0.170453,-0.24308 2.82e-4,-0.0654 0.202134,-0.35597 0.449231,-0.64601 0.247142,-0.29002 0.512308,-0.65268 0.589137,-0.80506 0.07689,-0.15238 0.294666,-0.43649 0.483568,-0.63214 0.188852,-0.19566 0.404266,-0.48058 0.47887,-0.63296 0.0746,-0.15238 0.291866,-0.4373 0.482618,-0.63296 0.190797,-0.19566 0.414797,-0.50427 0.497414,-0.68597 0.08263,-0.18172 0.307376,-0.46376 0.500213,-0.62643 0.192835,-0.1627 0.351669,-0.34619 0.352004,-0.40784 2.81e-4,-0.0616 0.0819,-0.24933 0.181549,-0.41763 0.409722,-0.69176 0.137161,-0.88528 -3.504192,-2.48942 -1.0691,-0.47096 -1.974721,-0.90072 -2.012901,-0.95515 -0.159776,-0.22768 -0.521553,-0.059 -1.312588,0.61258 -0.461087,0.3915 -1.232631,1.10384 -1.714582,1.58239 -0.51596,0.5123 -0.970499,0.8695 -1.104147,0.8695 -0.256581,0 -0.417787,-0.41263 -0.58729,-1.50246 -0.05639,-0.36247 -0.184112,-1.01521 -0.284373,-1.45026 -0.470951,-2.04372 -0.882905,-7.01304 -1.005976,-12.1445 l -0.07228,-3.02123 -0.849418,-0.0465 c -0.46735,-0.0256 -0.944418,-0.0827 -1.059666,-0.12723 -0.179321,-0.0692 -0.209343,-0.0222 -0.209343,0.32625 0,0.50286 -0.187955,1.10349 -0.377045,1.20638 -0.103207,0.0561 -0.08693,0.12409 0.05838,0.25205 0.285935,0.25178 0.291909,2.3841 0.0075,2.6346 -0.1558,0.13718 -0.164053,0.19806 -0.04174,0.32791 0.105,0.11142 0.182498,0.94739 0.25473,2.76593 0.267442,6.73376 0.279912,6.91731 0.48722,7.19338 0.108897,0.14502 0.234337,0.4642 0.278821,0.70963 0.04458,0.24544 0.154896,0.5007 0.245485,0.5669 0.09058,0.0662 0.164899,0.16496 0.164899,0.21941 0,0.0545 0.20878,0.4898 0.464077,0.96737 0.255299,0.47759 0.504198,1.03204 0.553899,1.23249 0.04975,0.20044 0.191793,0.47749 0.314961,0.61583 0.123173,0.13833 0.22324,0.33449 0.22324,0.43557 0,0.10111 0.08452,0.24556 0.187102,0.32056 0.102623,0.075 0.263693,0.29942 0.358503,0.49919 0.0948,0.19975 0.341993,0.53356 0.5493,0.74144 0.471661,0.47301 1.145501,1.70956 1.281096,2.35157 0.05644,0.26735 0.191988,0.59782 0.301021,0.73492 0.109082,0.13709 0.198246,0.31807 0.198246,0.40212 0,0.084 0.07009,0.22816 0.155604,0.31974 0.317195,0.33958 1.162868,2.42744 1.647901,4.06856 1.221534,4.13309 1.571921,5.58589 1.57287,6.51239 8.44e-4,0.488 0.03937,0.6092 0.198246,0.619 0.166233,0.012 0.163531,0.02 -0.01658,0.062 -0.190419,0.043 -0.211907,0.1737 -0.196348,1.1761 0.02277,1.4747 -0.137962,1.8498 -0.867963,2.0277 -0.428407,0.1039 -0.673557,0.096 -1.416359,-0.05 -0.494044,-0.098 -1.13014,-0.215 -1.414462,-0.2626 -0.284281,-0.048 -0.605077,-0.1633 -0.712312,-0.2578 -0.17894,-0.1576 -0.212137,-0.1583 -0.406636,0 -0.178375,0.1422 -0.536779,0.1674 -2.256533,0.1574 -2.086219,-0.012 -2.485791,-0.047 -2.971588,-0.2545 -0.217737,-0.093 -0.356651,-0.081 -0.658569,0.056 -0.210534,0.096 -0.600094,0.2225 -0.866114,0.2822 -0.804222,0.1804 -1.841543,0.735 -2.153662,1.1517 -0.158363,0.2113 -0.37401,0.6931 -0.479865,1.0701 -0.105806,0.3771 -0.241977,0.8518 -0.30197,1.0547 -0.182833,0.619 -0.142568,5.2203 0.04909,5.6242 0.245814,0.518 0.821958,0.8917 1.483944,0.9624 1.686978,0.1803 3.023475,0.5982 3.023475,0.9445 4.2e-5,0.084 -0.07555,0.2854 -0.168559,0.4495 -0.093,0.1643 -0.387667,0.7018 -0.654916,1.195 -0.667301,1.2311 -1.434288,2.0924 -3.605169,4.0489 -2.11202,1.9035 -2.891913,2.4903 -3.309741,2.4903 -0.892535,0 -2.61551,-1.1111 -3.516244,-2.2675 -0.665971,-0.8551 -1.412328,-2.0158 -1.559922,-2.4258 -0.08353,-0.2322 -0.201136,-0.4764 -0.261227,-0.5432 -0.140952,-0.157 -0.322505,-0.691 -0.461276,-1.3557 -0.06057,-0.29 -0.168179,-3.0653 -0.239933,-6.1672 -0.07171,-3.1021 -0.156843,-5.6627 -0.188951,-5.691 -0.110689,-0.098 -0.468056,0.174 -1.065259,0.8107 -1.445337,1.541 -2.416785,2.6143 -2.694613,2.9764 -1.519464,1.9799 -4.100399,4.6564 -5.048415,5.2349 -0.478067,0.2918 -0.490731,0.2937 -0.664168,0.09 -0.408967,-0.4789 0.03368,-2.9217 0.85776,-4.7317 0.21385,-0.4697 0.427888,-1.0403 0.475219,-1.2675 0.114057,-0.5475 0.871187,-2.2782 1.570072,-3.5906 0.217266,-0.4079 0.449706,-0.9079 0.516908,-1.1109 0.06716,-0.2031 0.210767,-0.5832 0.319566,-0.8442 0.201753,-0.4842 0.181595,-1.1973 -0.03984,-1.3924 -0.123406,-0.1088 -0.547879,0.6194 -0.906852,1.5563 -0.109984,0.2871 -0.357554,0.7588 -0.550249,1.049 -0.517618,0.7791 -0.778992,1.2886 -1.067112,2.0815 -0.14199,0.3908 -0.502442,1.1744 -0.801228,1.7407 -0.298792,0.5663 -0.619494,1.182 -0.712358,1.3678 -0.36523,0.7315 -1.796724,1.784 -2.308368,1.6975 -0.238318,-0.04 -0.361487,-0.5978 -0.375143,-1.6934 -0.0072,-0.5659 0.0275,-0.7112 0.170451,-0.7112 0.12862,0 0.179698,-0.1161 0.179698,-0.4071 0,-0.8839 0.15253,-1.7022 0.316813,-1.7022 0.128245,0 0.162106,-0.2789 0.162106,-1.319 0,-1.2479 0.01326,-1.318 0.239886,-1.318 0.227746,0 0.238986,-0.069 0.238986,-1.4234 0,-1.3536 0.01234,-1.4243 0.239934,-1.4243 0.199622,0 0.239929,-0.071 0.239929,-0.4216 0,-0.3516 -0.04031,-0.4217 -0.239929,-0.4217 -0.133082,0 -0.239934,-0.071 -0.239934,-0.1583 0,-0.088 -0.105902,-0.1582 -0.238986,-0.1582 -0.225656,0 -0.239886,0.071 -0.239886,1.213 0,1.1425 -0.01326,1.2128 -0.238983,1.2128 -0.307043,0 -0.3364,0.4161 -0.03036,0.4339 0.192126,0.012 0.192126,0.016 -0.0066,0.062 -0.195971,0.046 -0.213184,0.1648 -0.179699,1.2537 0.03652,1.1881 0.0332,1.204 -0.232539,1.2039 -0.264026,-2e-4 -0.269527,0.024 -0.269527,1.2276 0,0.8787 -0.04458,1.2612 -0.156556,1.3451 -0.145081,0.1087 -0.31923,0.4368 -0.874462,1.646 -0.716289,1.56 -1.514865,1.8355 -2.243488,0.7732 -0.256578,-0.3741 -0.297649,-0.5103 -0.188992,-0.6257 0.0764,-0.081 0.21171,-0.1475 0.300164,-0.1475 0.352806,-10e-5 0.435714,-0.4074 0.276928,-1.3557 -0.09523,-0.5693 -0.153857,-2.0424 -0.15561,-3.9177 -0.0048,-3.2465 0.104725,-4.1228 0.696605,-5.6542 0.431967,-1.1178 1.769219,-3.31441 2.496371,-4.10122 0.160826,-0.17402 0.358073,-0.42637 0.438179,-0.56037 0.08005,-0.13401 0.478252,-0.62528 0.88551,-1.09218 0.407305,-0.46692 0.84126,-1.02211 0.964287,-1.2333 0.123072,-0.21118 0.263646,-0.40737 0.312214,-0.43637 0.04852,-0.0291 0.153377,-0.22751 0.232487,-0.44128 0.0791,-0.21378 0.181217,-0.40427 0.226932,-0.42251 0.04552,-0.0182 0.29211,-0.38879 0.548406,-0.82384 0.256248,-0.43504 0.674793,-1.07338 0.929045,-1.41844 0.254303,-0.34507 0.462557,-0.6772 0.463172,-0.73819 8.46e-4,-0.061 0.18876,-0.31954 0.418687,-0.57421 0.229928,-0.2547 0.418686,-0.54247 0.418686,-0.64031 0,-0.20021 1.702154,-2.72739 2.382499,-3.53674 0.912777,-1.08592 0.980218,-1.30992 0.983728,-3.2896 0,-0.97505 -0.0587,-2.66481 -0.134311,-3.75534 -0.109984,-1.58638 -0.107474,-2.01563 0.01377,-2.14439 0.117714,-0.12491 0.119704,-0.17788 0.0075,-0.23899 -0.09523,-0.0519 -0.184395,-0.6711 -0.261227,-1.81161 -0.06421,-0.95287 -0.167183,-1.96936 -0.228788,-2.2594 -0.06166,-0.29003 -0.174435,-1.23923 -0.250132,-2.10932 -0.164095,-1.88739 -0.235238,-2.12173 -0.784584,-2.59055 -0.196961,-0.16814 -0.311501,-0.25227 -0.390892,-0.27082 z m 20.943879,52.03077 0.866065,0.07 c 1.666536,0.1346 4.263829,0.5631 4.609338,0.7602 0.486081,0.2775 0.301916,0.7822 -0.689163,1.8891 -0.311641,0.3481 -0.687786,0.8428 -0.835573,1.0995 -0.298124,0.5182 -1.391366,1.5897 -1.621956,1.5897 -0.0812,0 -0.215319,0.072 -0.297318,0.1583 -0.301019,0.3193 -0.587289,0.1418 -0.963389,-0.5971 -0.164001,-0.3222 -0.409719,-0.4017 -1.256054,-0.4037 -0.579655,0 -0.974578,0.075 -2.488074,0.4788 -0.638461,0.1704 -0.711973,0.1716 -0.888304,0.016 -0.176382,-0.1552 -0.160779,-0.2236 0.182451,-0.8335 0.205692,-0.3655 0.672419,-1.0443 1.037464,-1.5082 0.365093,-0.4641 0.811953,-1.0491 0.993027,-1.2995 0.181032,-0.2503 0.55912,-0.6716 0.840171,-0.9371 l 0.511315,-0.4829 z"
       style="display:inline;opacity:0.75;fill:#800000;fill-opacity:1;stroke:none;stroke-width:0.35433072;stroke-linejoin:round;stroke-miterlimit:4;stroke-dasharray:none;stroke-opacity:1" />
  </g>
</svg>
