<?xml version="1.0" encoding="UTF-8" standalone="no"?>
<!-- Created with Inkscape (http://www.inkscape.org/) -->

<svg
   xmlns:dc="http://purl.org/dc/elements/1.1/"
   xmlns:cc="http://creativecommons.org/ns#"
   xmlns:rdf="http://www.w3.org/1999/02/22-rdf-syntax-ns#"
   xmlns:svg="http://www.w3.org/2000/svg"
   xmlns="http://www.w3.org/2000/svg"
   xmlns:sodipodi="http://sodipodi.sourceforge.net/DTD/sodipodi-0.dtd"
   xmlns:inkscape="http://www.inkscape.org/namespaces/inkscape"
   width="120"
   height="160"
   viewBox="0 0 120 160"
   id="svg4417"
   version="1.1"
   inkscape:version="0.91 r13725"
   sodipodi:docname="dos_carte.svg">
  <defs
     id="defs4419" />
  <sodipodi:namedview
     id="base"
     pagecolor="#ffffff"
     bordercolor="#666666"
     borderopacity="1.0"
     inkscape:pageopacity="0.0"
     inkscape:pageshadow="2"
     inkscape:zoom="4"
     inkscape:cx="-15.557114"
     inkscape:cy="67.011966"
     inkscape:document-units="px"
     inkscape:current-layer="layer5"
     showgrid="false"
     inkscape:window-width="1680"
     inkscape:window-height="987"
     inkscape:window-x="-8"
     inkscape:window-y="-8"
     inkscape:window-maximized="1"
     units="px" />
  <metadata
     id="metadata4422">
    <rdf:RDF>
      <cc:Work
         rdf:about="">
        <dc:format>image/svg+xml</dc:format>
        <dc:type
           rdf:resource="http://purl.org/dc/dcmitype/StillImage" />
        <dc:title />
      </cc:Work>
    </rdf:RDF>
  </metadata>
  <g
     inkscape:label="Calque 1"
     inkscape:groupmode="layer"
     id="layer1"
     style="display:inline;opacity:1"
     transform="translate(0,-892.36214)" />
  <g
     inkscape:groupmode="layer"
     id="layer6"
     inkscape:label="Calque 2"
     style="display:inline;opacity:1"
     transform="translate(0,-892.36214)" />
  <g
     inkscape:groupmode="layer"
     id="layer5"
     inkscape:label="Layer 1"
     style="display:inline"
     transform="translate(0,-892.36214)">
    <flowRoot
       xml:space="preserve"
       id="flowRoot4376"
       style="font-style:normal;font-weight:normal;font-size:25px;line-height:125%;font-family:sans-serif;letter-spacing:0px;word-spacing:0px;fill:#000000;fill-opacity:1;stroke:none;stroke-width:1px;stroke-linecap:butt;stroke-linejoin:miter;stroke-opacity:1"><flowRegion
         id="flowRegion4378"><rect
           id="rect4380"
           width="191"
           height="87"
           x="89"
           y="117.36221" /></flowRegion><flowPara
         id="flowPara4382" /></flowRoot>    <g
       id="g4814"
       transform="matrix(0.15816503,0,0,0.15629267,0.88545995,891.85492)">
      <path
         id="rect4218-9"
         d="m 15.543031,143.15616 0,745.54184 718.762919,0 0,-745.54184 -718.762919,0 z"
         style="opacity:1;fill:#000000;fill-opacity:1;stroke:#000000;stroke-width:3.19450188;stroke-linejoin:round;stroke-miterlimit:4;stroke-dasharray:none;stroke-opacity:1"
         inkscape:connector-curvature="0" />
      <path
         id="rect4218"
         d="m 15.543028,143.14881 718.762922,0 0,-68.844006 c 0,-34.860608 -28.06235,-62.922964 -62.92293,-62.922964 l -592.910831,0 c -34.860575,0 -62.929161,28.062356 -62.929161,62.922964 l 0,68.844006 z"
         style="opacity:1;fill:#000000;fill-opacity:1;stroke:#000000;stroke-width:3.19450188;stroke-linejoin:round;stroke-miterlimit:4;stroke-dasharray:none;stroke-opacity:1"
         inkscape:connector-curvature="0" />
      <path
         id="rect4218-1"
         d="m 15.543031,888.69764 718.762919,0 0,68.84401 c 0,34.86061 -28.06235,62.92295 -62.9229,62.92295 l -592.910857,0 c -34.860576,0 -62.929162,-28.06234 -62.929162,-62.92295 l 0,-68.84401 z"
         style="opacity:1;fill:#000000;fill-opacity:1;stroke:#000000;stroke-width:3.19450188;stroke-linejoin:round;stroke-miterlimit:4;stroke-dasharray:none;stroke-opacity:1"
         inkscape:connector-curvature="0" />
      <path
         style="display:inline;opacity:0.28999999;fill:#ffff00;fill-opacity:1;fill-rule:evenodd;stroke:#ffffff;stroke-width:3.03522897px;stroke-linecap:butt;stroke-linejoin:miter;stroke-opacity:0.2982456"
         d="M 30.897036,1000.3452 718.01192,29.645298"
         id="path4870"
         inkscape:connector-curvature="0" />
      <path
         style="display:inline;opacity:0.28999999;fill:#ffff00;fill-opacity:1;fill-rule:evenodd;stroke:#ffffff;stroke-width:3.16198468px;stroke-linecap:butt;stroke-linejoin:miter;stroke-opacity:0.2982456"
         d="M 15.175912,820.31438 586.93493,11.313528"
         id="path4872"
         inkscape:connector-curvature="0" />
      <path
         style="display:inline;opacity:0.28999999;fill:#ffff00;fill-opacity:1;fill-rule:evenodd;stroke:#ffffff;stroke-width:3.16198468px;stroke-linecap:butt;stroke-linejoin:miter;stroke-opacity:0.2982456"
         d="M 15.175912,618.02872 442.93666,11.313528"
         id="path4874"
         inkscape:connector-curvature="0" />
      <path
         style="display:inline;opacity:0.28999999;fill:#ffff00;fill-opacity:1;fill-rule:evenodd;stroke:#ffffff;stroke-width:3.16198468px;stroke-linecap:butt;stroke-linejoin:miter;stroke-opacity:0.2982456"
         d="M 15.175912,415.76747 303.8754,11.313528"
         id="path4876"
         inkscape:connector-curvature="0" />
      <path
         style="display:inline;opacity:0.28999999;fill:#ffff00;fill-opacity:1;fill-rule:evenodd;stroke:#ffffff;stroke-width:3.16198468px;stroke-linecap:butt;stroke-linejoin:miter;stroke-opacity:0.2982456"
         d="M 15.175912,213.64325 159.87716,11.313528"
         id="path4878"
         inkscape:connector-curvature="0" />
      <path
         style="display:inline;opacity:0.28999999;fill:#ffff00;fill-opacity:1;fill-rule:evenodd;stroke:#ffffff;stroke-width:3.16198468px;stroke-linecap:butt;stroke-linejoin:miter;stroke-opacity:0.2982456"
         d="M 159.87716,1022.5512 730.98569,213.64325"
         id="path4880"
         inkscape:connector-curvature="0" />
      <path
         style="display:inline;opacity:0.28999999;fill:#ffff00;fill-opacity:1;fill-rule:evenodd;stroke:#ffffff;stroke-width:3.16198468px;stroke-linecap:butt;stroke-linejoin:miter;stroke-opacity:0.2982456"
         d="M 303.8754,1022.5512 730.98569,415.76747"
         id="path4882"
         inkscape:connector-curvature="0" />
      <path
         style="display:inline;opacity:0.28999999;fill:#ffff00;fill-opacity:1;fill-rule:evenodd;stroke:#ffffff;stroke-width:3.16198468px;stroke-linecap:butt;stroke-linejoin:miter;stroke-opacity:0.2982456"
         d="M 442.93666,1022.5512 730.98569,618.02872"
         id="path4884"
         inkscape:connector-curvature="0" />
      <path
         style="display:inline;opacity:0.28999999;fill:#ffff00;fill-opacity:1;fill-rule:evenodd;stroke:#ffffff;stroke-width:3.16198468px;stroke-linecap:butt;stroke-linejoin:miter;stroke-opacity:0.2982456"
         d="M 586.93493,1022.5512 730.98569,820.31438"
         id="path4886"
         inkscape:connector-curvature="0" />
      <path
         style="display:inline;opacity:1;fill:#ffffff;fill-opacity:1;stroke:none;stroke-width:0.35433072;stroke-linejoin:round;stroke-miterlimit:4;stroke-dasharray:none;stroke-opacity:1"
         d="m 327.74021,423.91836 c -0.13736,-0.0364 -0.25492,-0.0319 -0.36092,0.016 -0.14119,0.0613 -0.26354,0.19295 -0.38496,0.38497 -0.79681,1.26026 -0.76001,34.50448 0.053,47.28038 0.35932,5.64667 0.70791,19.64676 0.77477,31.11119 0.13512,23.17208 0.3765,21.58924 -4.37912,28.70503 -3.17045,4.74386 -4.60829,6.99749 -7.42051,11.61198 -6.08824,9.99007 -13.03223,20.07731 -20.58681,29.90811 -2.13888,2.78333 -5.54469,7.25145 -7.56487,9.92764 -2.0201,2.67626 -5.09871,6.15057 -6.843,7.71885 -1.7443,1.56827 -3.17125,3.23497 -3.17125,3.70546 0,0.47045 -0.44966,1.4987 -1.00093,2.28579 -0.55131,0.78713 -1.37836,2.74159 -1.83828,4.34066 -1.65203,5.74378 -3.82966,11.65434 -5.62069,15.25483 -1.8048,3.62809 -3.95173,11.00615 -4.35989,14.99014 -0.23224,2.26455 -0.62864,4.24747 -0.88066,4.4032 -0.25205,0.1559 -2.94041,-0.29038 -5.97682,-0.99131 -7.4658,-1.72353 -13.81682,-2.3547 -24.22965,-2.40131 -8.78776,-0.0393 -15.43277,0.74266 -16.94875,1.99225 -0.44755,0.36893 -1.19756,1.58572 -1.66504,2.7045 -0.46748,1.11881 -1.95462,3.24092 -3.3012,4.71601 -1.34661,1.47512 -3.22469,3.94115 -4.177,5.48116 -0.95235,1.53997 -2.77995,3.9514 -4.06155,5.35603 -1.28164,1.40462 -2.486,3.08557 -2.67562,3.73427 -0.18976,0.64871 -0.64485,2.33643 -1.01058,3.75357 -0.6905,2.67546 -2.19003,4.07034 -5.16353,4.80262 -1.64798,0.40586 -2.36314,1.94015 -1.10201,2.36764 0.33651,0.11404 1.25023,1.46765 2.02595,3.00765 1.22075,2.42348 2.18044,3.2275 7.14138,5.95276 3.15239,1.73174 6.231,3.58951 6.843,4.13372 0.61204,0.54415 2.09381,1.43248 3.29158,1.97299 1.19781,0.54057 2.59538,1.23618 3.10873,1.54476 2.82851,1.70037 6.93386,3.19757 8.78233,3.20495 1.1603,0.006 2.69303,0.16452 3.40709,0.35613 1.29368,0.34733 1.30052,0.4999 1.78535,42.15046 0.2677,22.9891 0.66925,43.7587 0.89506,46.15425 l 0.41385,4.3551 0.52936,-4.04711 c 0.29198,-2.22446 0.7026,-22.43013 0.91433,-44.9031 0.21148,-22.47294 0.54792,-41.01926 0.74592,-41.21687 0.19806,-0.19774 2.57774,0.17825 5.28863,0.83731 2.71091,0.65909 7.17066,1.65833 9.90841,2.22325 2.73779,0.56491 6.18443,1.2799 7.66112,1.58808 6.59706,1.3767 12.10145,5.61929 15.14411,11.6745 0.8038,1.59958 1.77595,3.11626 2.16552,3.36857 0.3896,0.25236 0.87696,1.12897 1.08278,1.94896 0.20573,0.82 3.98092,5.09616 8.38771,9.49936 9.03689,9.02962 13.77747,15.51107 13.77747,18.83514 0,2.21743 -3.56618,9.4332 -6.94891,14.05657 -2.3062,3.15208 -5.34983,7.79018 -7.38677,11.26069 -0.86999,1.48221 -2.18664,3.34202 -2.92584,4.12889 -0.73924,0.78687 -1.788,2.40645 -2.32915,3.59956 -1.58728,3.49958 -4.0067,7.63509 -5.25974,8.99409 -0.63996,0.69404 -1.60978,2.24296 -2.15591,3.44074 -1.6023,3.51417 -3.89141,7.34981 -5.61105,9.39352 -0.88072,1.04665 -1.60252,2.26356 -1.60252,2.7045 0,0.44094 -0.54463,1.49078 -1.20784,2.33394 -0.66324,0.84315 -1.39105,2.2664 -1.61693,3.16645 -0.22585,0.90008 -0.80032,1.96465 -1.28007,2.36281 -0.47975,0.39817 -0.8758,1.47941 -0.8758,2.40131 0,1.37431 0.74604,2.17031 4.12889,4.43208 9.14969,6.11748 12.39237,7.94614 14.79284,8.32999 1.38294,0.22138 2.98338,0.82421 3.55625,1.34265 0.68216,0.6173 1.97018,0.87807 3.73428,0.75067 2.11077,-0.15238 2.85416,-0.5161 3.43115,-1.67944 0.97905,-1.97405 9.62679,-10.64951 10.61581,-10.64951 0.42758,0 1.23972,-0.89507 1.8046,-1.98746 1.29307,-2.5005 7.01136,-8.58986 8.06535,-8.58986 1.20778,0 1.43948,5.56323 1.80937,43.55563 0.18496,18.99329 0.5331,36.91247 0.77479,39.82135 0.42088,5.06542 0.46052,5.16963 0.91913,2.48794 0.26322,-1.53997 0.65356,-23.65676 0.87104,-49.1523 l 0.39462,-46.35637 2.32429,-2.48794 c 1.27639,-1.36888 2.98139,-3.4701 3.79206,-4.66787 0.81064,-1.19778 4.69994,-6.24072 8.64279,-11.20293 3.94285,-4.96221 8.31835,-10.56805 9.72074,-12.45891 2.98814,-4.029 5.41471,-5.81236 7.15581,-5.25978 1.59272,0.50553 11.12722,10.15034 13.3925,13.54648 0.96164,1.44171 2.32043,3.2765 3.02207,4.08078 1.29898,1.48906 7.66159,5.97069 12.53592,8.8305 1.48286,0.86999 3.33704,2.14754 4.11925,2.83921 0.78221,0.69167 2.91668,2.01123 4.74492,2.93067 3.96716,1.99509 7.40441,2.14533 12.04985,0.52453 12.73255,-4.44237 13.05009,-4.43179 17.27597,0.62558 1.76205,2.10879 3.72661,4.856 4.36471,6.10674 1.57783,3.09276 2.74615,3.99473 4.16739,3.2146 1.85875,-1.02023 7.93322,-7.49006 7.46861,-7.95466 -0.23671,-0.23672 -2.03129,-0.64858 -3.98936,-0.9143 -2.03352,-0.27601 -3.86739,-0.89826 -4.27328,-1.45331 -0.39082,-0.5345 -0.90666,-4.20872 -1.15012,-8.1616 -0.51179,-8.31133 -0.48703,-8.36886 4.56201,-10.67836 4.82277,-2.20596 9.483,-1.82169 11.99213,0.98653 1.98362,2.22005 2.26937,4.68649 0.7892,6.79969 -0.53777,0.76799 -0.88242,2.28087 -0.77477,3.3878 l 0.19231,2.0019 4.98065,-4.34063 c 2.73778,-2.38757 6.37348,-5.45065 8.08458,-6.80451 1.7111,-1.35383 9.13378,-8.36793 16.49158,-15.58687 7.35774,-7.219 14.25342,-13.73572 15.32217,-14.48007 l 1.93935,-1.35223 9.57156,0.99132 c 5.2623,0.54418 11.24772,1.10347 13.30105,1.2464 2.05333,0.14279 4.31503,0.3857 5.02878,0.53894 1.29652,0.27824 1.29687,0.32306 1.78534,48.05029 0.26898,26.27312 0.67149,49.86758 0.89028,52.43427 l 0.39462,4.66787 0.48122,-4.3551 c 0.26482,-2.39556 0.7323,-24.79569 1.03463,-49.77788 0.33836,-27.96173 0.79358,-46.05916 1.18382,-47.07341 0.6335,-1.64664 0.63685,-1.64328 8.63317,-1.86233 10.36776,-0.28399 10.54655,-0.3951 14.71583,-8.93154 0.50144,-1.02665 1.91443,-3.26587 3.1376,-4.97585 1.22315,-1.71002 2.22325,-3.33551 2.22325,-3.60918 0,-0.52339 5.59344,-10.47909 6.18855,-11.01525 0.19007,-0.17091 0.99665,-1.57352 1.79499,-3.11352 0.79827,-1.54001 2.13226,-4.04562 2.95951,-5.57259 2.12323,-3.91904 2.04266,-7.48171 -0.207,-9.14327 -0.9411,-0.69512 -2.83221,-1.45886 -4.20109,-1.69391 -8.37138,-1.43801 -30.45804,-7.03213 -38.11299,-9.65334 -1.11227,-0.38091 -2.86164,-0.97155 -3.88832,-1.31377 -14.72854,-4.9095 -18.23578,-6.5088 -21.59256,-9.8651 -3.32938,-3.32896 -4.46678,-5.45541 -5.14909,-9.62449 -0.28975,-1.77081 -0.58377,-3.49795 -0.65446,-3.84018 -0.41021,-1.98308 0.10606,-3.42633 1.2271,-3.42633 1.48541,0 2.21175,-1.04144 1.42925,-2.05 -0.32031,-0.41276 -0.40991,-2.453 -0.19742,-4.53795 0.59076,-5.79103 -0.99349,-17.86708 -3.37818,-25.76478 -1.15692,-3.83155 -3.28181,-13.32832 -3.98454,-17.79088 -0.31849,-2.02257 -0.87622,-4.79562 -1.23675,-6.1645 -0.97272,-3.69335 -0.82188,-7.34118 0.41385,-10.04316 1.56687,-3.42616 6.30895,-11.2218 7.35311,-12.08834 0.4855,-0.40296 0.8842,-1.04818 0.88545,-1.43405 0.001,-0.38589 1.05006,-2.10022 2.33393,-3.81133 1.2839,-1.7111 2.66141,-3.85068 3.06062,-4.74968 0.39922,-0.89899 1.53071,-2.57515 2.51197,-3.72948 0.98128,-1.15434 2.10032,-2.83531 2.48794,-3.73431 0.38759,-0.899 1.51608,-2.57994 2.50717,-3.73431 0.9911,-1.15433 2.15498,-2.9751 2.58419,-4.04708 0.42919,-1.07204 1.59684,-2.73603 2.5986,-3.69582 1.00183,-0.95978 1.82681,-2.04237 1.82866,-2.40613 0.002,-0.36376 0.42538,-1.47091 0.94321,-2.46385 2.12837,-4.0813 0.7125,-5.22289 -18.20473,-14.68698 -5.55399,-2.77861 -10.25866,-5.31409 -10.45704,-5.63517 -0.83009,-1.34319 -2.70964,-0.34823 -6.81892,3.61401 -2.39556,2.30985 -6.4037,6.51244 -8.90748,9.33577 -2.68045,3.02251 -5.04186,5.12986 -5.73621,5.12986 -1.33278,0 -2.17041,-2.4344 -3.05094,-8.86417 -0.29294,-2.13849 -0.9566,-5.9895 -1.47736,-8.55618 -2.44651,-12.05743 -4.58673,-41.37519 -5.22611,-71.64955 l -0.37536,-17.82462 -4.41285,-0.2744 c -2.42798,-0.1511 -4.90624,-0.48828 -5.50515,-0.75071 -0.93145,-0.4082 -1.08757,-0.13162 -1.08757,1.92491 0,2.9667 -0.9764,6.51027 -1.95858,7.11732 -0.53613,0.33136 -0.45176,0.73205 0.30316,1.48697 1.48544,1.48542 1.51646,14.06565 0.0383,15.54359 -0.80926,0.80929 -0.85229,1.16848 -0.21658,1.93452 0.54552,0.6573 0.94816,5.58939 1.32338,16.31832 1.38942,39.72765 1.45427,40.81043 2.53126,42.43921 0.56568,0.85555 1.21736,2.73868 1.44849,4.18665 0.23096,1.448 0.80459,2.95396 1.27521,3.34452 0.47061,0.39059 0.85657,0.9733 0.85657,1.2945 0,0.32121 1.0847,2.88969 2.41092,5.70733 1.32623,2.81762 2.61934,6.08872 2.87771,7.2713 0.25843,1.18257 0.99633,2.8171 1.63616,3.63323 0.63986,0.81616 1.15976,1.97337 1.15976,2.56975 0,0.59638 0.43896,1.44877 0.97206,1.89121 0.5331,0.44244 1.36993,1.76656 1.86236,2.94511 0.4924,1.17858 1.77678,3.14786 2.85365,4.37433 2.45021,2.79065 5.95107,10.08606 6.65536,13.87372 0.29325,1.57731 0.99745,3.52698 1.56396,4.33583 0.56652,0.80882 1.02981,1.87664 1.02981,2.37243 0,0.49579 0.36408,1.34613 0.80847,1.88638 1.64769,2.0034 6.04119,14.32128 8.56098,24.00352 6.34597,24.38443 8.16626,32.95499 8.17121,38.42098 0.002,2.87936 0.20349,3.59436 1.02981,3.6525 0.86357,0.0607 0.84945,0.11787 -0.0869,0.36091 -0.98924,0.25716 -1.10101,1.02528 -1.02019,6.93926 0.11915,8.70026 -0.71663,10.91408 -4.50907,11.96325 -2.22558,0.61571 -3.49913,0.56411 -7.35793,-0.29358 -2.56666,-0.57047 -5.8714,-1.26815 -7.34831,-1.54955 -1.47695,-0.28144 -3.14343,-0.96347 -3.70061,-1.52065 -0.92947,-0.9305 -1.10198,-0.93385 -2.11256,-0.0192 -0.92659,0.83849 -2.78857,0.98717 -11.72267,0.92877 -10.83802,-0.0706 -12.914,-0.27441 -15.43762,-1.50141 -1.13111,-0.54994 -1.85294,-0.47819 -3.4215,0.33203 -1.09358,0.56492 -3.11742,1.31291 -4.49946,1.66504 -4.17786,1.06454 -9.56686,4.33612 -11.18849,6.7949 -0.82268,1.24739 -1.94292,4.08922 -2.49273,6.31367 -0.54977,2.22443 -1.25726,5.02448 -1.56879,6.22222 -0.94982,3.6518 -0.74071,30.7973 0.25492,33.18046 1.27681,3.05586 4.27009,5.26077 7.7092,5.67845 8.76396,1.06441 15.70717,3.53025 15.70717,5.57259 7e-5,0.49064 -0.39257,1.6827 -0.8758,2.65156 -0.4832,0.96883 -2.01388,4.141 -3.40224,7.04995 -3.46664,7.26311 -7.45134,12.34483 -18.7293,23.88797 -10.97197,11.22992 -15.02358,14.6918 -17.19415,14.6918 -4.63679,0 -13.58791,-6.55534 -18.26728,-13.37806 -3.45981,-5.04456 -7.33701,-11.89201 -8.10385,-14.31162 -0.43381,-1.36888 -1.04505,-2.81033 -1.35705,-3.20495 -0.73234,-0.92625 -1.67549,-4.07612 -2.39649,-7.99798 -0.31465,-1.7111 -0.87372,-18.08443 -1.24636,-36.38541 -0.37264,-18.30095 -0.81479,-33.40822 -0.9817,-33.57504 -0.57514,-0.57514 -2.43156,1.02678 -5.5341,4.78338 -7.50854,9.09152 -12.55544,15.42392 -13.99881,17.55989 -7.89359,11.68127 -21.30174,27.47198 -26.22677,30.88502 -2.48353,1.7211 -2.54937,1.73231 -3.45038,0.53415 -2.12469,-2.8255 0.17538,-17.23724 4.45617,-27.91585 1.11089,-2.77123 2.22283,-6.13786 2.46868,-7.47824 0.59248,-3.23037 4.52584,-13.4409 8.15675,-21.18351 1.12855,-2.40657 2.33629,-5.3565 2.68523,-6.55425 0.34893,-1.19781 1.09514,-3.44067 1.66021,-4.98071 1.04809,-2.8563 0.94337,-7.06419 -0.207,-8.2145 -0.64101,-0.64098 -2.84624,3.65419 -4.71119,9.18176 -0.57146,1.69376 -1.85744,4.47745 -2.85847,6.18855 -2.68916,4.59676 -4.04705,7.60269 -5.54371,12.28085 -0.73767,2.30579 -2.61041,6.92846 -4.16259,10.26937 -1.55218,3.34087 -3.21817,6.97295 -3.70064,8.07011 -1.89753,4.31538 -9.33424,10.52527 -11.99213,10.01431 -1.23815,-0.23799 -1.87798,-3.52676 -1.94896,-9.99023 -0.0367,-3.33902 0.14343,-4.1963 0.88545,-4.1963 0.66816,0 0.93359,-0.68493 0.93359,-2.4013 0,-5.21509 0.7923,-10.04316 1.64578,-10.04316 0.6664,0 0.84213,-1.64536 0.84213,-7.7814 0,-7.36294 0.0684,-7.7766 1.2464,-7.7766 1.18296,0 1.24154,-0.41218 1.24154,-8.39735 0,-7.98517 0.0632,-8.40221 1.2464,-8.40221 1.03703,0 1.24637,-0.41385 1.24637,-2.48794 0,-2.07406 -0.20956,-2.48791 -1.24637,-2.48791 -0.69138,0 -1.2464,-0.41506 -1.2464,-0.9336 0,-0.5185 -0.55019,-0.93356 -1.24154,-0.93356 -1.17232,0 -1.2464,0.41506 -1.2464,7.15581 0,6.74072 -0.0693,7.15582 -1.24154,7.15582 -1.59511,0 -1.74749,2.45491 -0.15877,2.5601 0.99812,0.0665 0.99819,0.0936 -0.0339,0.36095 -1.01793,0.26386 -1.10747,0.97225 -0.93356,7.39642 0.18975,7.0097 0.17346,7.10409 -1.20787,7.10285 -1.37176,-10e-4 -1.40038,0.14599 -1.40038,7.24244 0,5.18385 -0.23288,7.44096 -0.81325,7.9354 -0.75359,0.64194 -1.65849,2.57733 -4.54275,9.71113 -3.7213,9.2039 -7.86997,10.82878 -11.65526,4.562 -1.33288,-2.2067 -1.54621,-3.01082 -0.98171,-3.69099 0.39692,-0.47825 1.09978,-0.87101 1.55918,-0.87101 1.83303,-3e-5 2.26359,-2.40284 1.43886,-7.99798 -0.49495,-3.35777 -0.79936,-12.04921 -0.80846,-23.11321 -0.016,-19.15414 0.54406,-24.32367 3.6188,-33.35849 2.2442,-6.59438 9.19134,-19.55393 12.969,-24.19599 0.83549,-1.02668 1.86016,-2.51544 2.27618,-3.30602 0.41602,-0.79057 2.48468,-3.68898 4.60053,-6.4436 2.11585,-2.75462 4.3703,-6.03019 5.00955,-7.27611 0.63929,-1.24589 1.36949,-2.40345 1.62176,-2.57455 0.25236,-0.1709 0.7968,-1.34223 1.20787,-2.60342 0.41107,-1.26122 0.94158,-2.38511 1.17899,-2.49277 0.23768,-0.10765 1.51755,-2.29371 2.84886,-4.86037 1.33128,-2.56665 3.50574,-6.33265 4.82667,-8.36847 1.32093,-2.03583 2.4029,-3.99534 2.40613,-4.3551 0.002,-0.35973 0.98068,-1.88524 2.17514,-3.38783 1.19445,-1.50257 2.17513,-3.20035 2.17513,-3.7776 0,-1.18116 8.84277,-16.09099 12.3771,-20.86591 4.74211,-6.4067 5.09236,-7.72814 5.1106,-19.40781 0.01,-5.7526 -0.30508,-15.72171 -0.69778,-22.15556 -0.57124,-9.35929 -0.55827,-11.89176 0.0722,-12.65141 0.61155,-0.73691 0.62187,-1.04943 0.0383,-1.40996 -0.4948,-0.30571 -0.95781,-3.95939 -1.35706,-10.68804 -0.33353,-5.62174 -0.86836,-11.61882 -1.18861,-13.32992 -0.32021,-1.7111 -0.90621,-7.31116 -1.2993,-12.4445 -0.85267,-11.1352 -1.22221,-12.51772 -4.07596,-15.28371 -1.02342,-0.99192 -1.61839,-1.48822 -2.03077,-1.59767 z m 108.80492,306.96853 4.49939,0.41382 c 8.65778,0.79418 22.15084,3.32142 23.94577,4.48505 2.52528,1.63711 1.56843,4.61509 -3.58034,11.14513 -1.619,2.05333 -3.57298,4.97202 -4.34065,6.48692 -1.54899,3.05694 -7.2283,9.37909 -8.42624,9.37909 -0.4218,0 -1.11871,0.42023 -1.54473,0.93356 -1.56371,1.88415 -3.05101,0.83721 -5.00473,-3.52255 -0.85204,-1.90136 -2.12866,-2.36977 -6.52538,-2.38207 -3.0112,-0.006 -5.06309,0.44167 -12.92569,2.82477 -3.31694,1.00524 -3.69875,1.01246 -4.61493,0.0965 -0.91619,-0.91621 -0.83508,-1.31946 0.94803,-4.91813 1.06853,-2.15654 3.49322,-6.16008 5.3897,-8.89786 1.89651,-2.73776 4.21811,-6.18875 5.15873,-7.66588 0.94063,-1.47714 2.90473,-3.96333 4.36468,-5.52927 l 2.65639,-2.84886 z"
         id="path5627"
         inkscape:connector-curvature="0" />
      <path
         d="m 392.08247,119.50333 -36.56794,28.73959 -64.23514,0 0,137.90716 q 0,13.29743 10.08031,17.15798 l 0,0.75065 -51.58114,0 0,-0.64341 q 9.54412,-3.32435 9.54412,-17.05075 l 0.10733,-78.17597 -0.96512,0 -19.62443,93.61816 -3.4316,0 -16.30007,-93.082 -0.85792,0 0,75.17337 q 0,7.18488 3.9678,12.86848 3.64608,5.04015 8.47175,6.75595 l 0,0.53617 -48.90022,0 0,-0.53617 q 12.43952,-4.93291 12.43952,-19.73167 l 0,-145.1993 q 0,-15.44219 -10.0803,-18.55207 l 0,-0.53617 48.14956,0 0,0.53617 q -4.39675,1.50132 -3.21712,8.57899 l 11.90332,70.56214 14.3698,-69.38254 q 1.39411,-6.54147 -1.82301,-8.90068 l -0.10733,-1.39408 138.65783,0 z"
         style="font-style:normal;font-variant:normal;font-weight:normal;font-stretch:normal;font-size:68.75px;line-height:125%;font-family:Corleone;-inkscape-font-specification:Corleone;letter-spacing:0px;word-spacing:0px;fill:#ffffff;fill-opacity:1;stroke:none;stroke-width:1px;stroke-linecap:butt;stroke-linejoin:miter;stroke-opacity:1"
         id="path4796"
         inkscape:connector-curvature="0" />
      <path
         d="m 377.60543,304.05871 -23.16326,0 q -10.18756,0 -11.15268,-14.47704 l -0.32172,0 q -5.04016,14.47704 -13.94084,14.47704 l -12.86847,0 q -14.69152,0 -14.69152,-13.72636 l 0,-30.1337 q 0,-9.54412 0.75065,-12.54676 0.75067,-3.00264 3.75331,-5.46908 l 32.81463,-26.91659 q 3.64607,-3.00264 3.64607,-5.89804 l 0,-3.53884 q 0,-3.21712 -3.64607,-3.21712 l -10.83099,0 q -12.86848,0 -21.98364,9.7586 0,-4.50396 2.8954,-10.402 l 6.00532,-12.33231 q 5.04012,-10.18755 15.22767,-10.18755 l 25.73696,0 q 7.93555,0 12.22507,5.04015 4.28948,4.93292 4.28948,12.76124 l 0,88.4708 q 0,12.54676 5.25463,18.33756 z m -35.17383,-25.09352 0,-36.56794 -7.29215,5.6836 q -3.96779,3.00264 -3.96779,10.50924 l 0,15.65667 q 0,4.71843 4.82571,4.71843 l 6.43423,0 z"
         style="font-style:normal;font-variant:normal;font-weight:normal;font-stretch:normal;font-size:68.75px;line-height:125%;font-family:Corleone;-inkscape-font-specification:Corleone;letter-spacing:0px;word-spacing:0px;fill:#ffffff;fill-opacity:1;stroke:none;stroke-width:1px;stroke-linecap:butt;stroke-linejoin:miter;stroke-opacity:1"
         id="path4798"
         inkscape:connector-curvature="0" />
      <path
         d="m 445.05769,136.33957 0,11.36715 -24.55735,20.6968 0,-21.12575 q 0,-6.75593 -5.36187,-6.75593 -5.14737,0 -5.14737,7.82832 l 0,32.27843 21.8764,0 -9.7586,23.27048 -12.1178,0 0,92.0096 q 0,5.89807 6.00528,6.8632 l 0,1.28684 -35.60279,0 0,-167.71914 q 0,-16.83624 15.5494,-16.83624 l 33.5653,0 q 8.90068,0 12.22504,3.86052 3.32436,3.86056 3.32436,12.97572 z"
         style="font-style:normal;font-variant:normal;font-weight:normal;font-stretch:normal;font-size:68.75px;line-height:125%;font-family:Corleone;-inkscape-font-specification:Corleone;letter-spacing:0px;word-spacing:0px;fill:#ffffff;fill-opacity:1;stroke:none;stroke-width:1px;stroke-linecap:butt;stroke-linejoin:miter;stroke-opacity:1"
         id="path4800"
         inkscape:connector-curvature="0" />
      <path
         d="m 482.1618,165.29364 q 0,6.64872 -4.50396,11.36715 -4.39672,4.71844 -10.72375,4.71844 -6.327,0 -10.83096,-4.71844 -4.50396,-4.71843 -4.50396,-11.36715 0,-6.64872 4.50396,-11.36716 4.50396,-4.71844 10.83096,-4.71844 6.32703,0 10.72375,4.71844 4.50396,4.71844 4.50396,11.36716 z m 5.14739,138.76507 -35.49554,0 0,-89.00697 q 0,-8.57896 -6.21976,-8.79344 l 0,-1.1796 35.81723,-28.09619 0,118.92616 q 0,5.89807 5.89807,6.8632 l 0,1.28684 z"
         style="font-style:normal;font-variant:normal;font-weight:normal;font-stretch:normal;font-size:68.75px;line-height:125%;font-family:Corleone;-inkscape-font-specification:Corleone;letter-spacing:0px;word-spacing:0px;fill:#ffffff;fill-opacity:1;stroke:none;stroke-width:1px;stroke-linecap:butt;stroke-linejoin:miter;stroke-opacity:1"
         id="path4802"
         inkscape:connector-curvature="0" />
      <path
         d="m 568.05888,304.05871 -23.16326,0 q -10.18756,0 -11.15268,-14.47704 l -0.32172,0 q -5.04016,14.47704 -13.94084,14.47704 l -12.86847,0 q -14.69152,0 -14.69152,-13.72636 l 0,-30.1337 q 0,-9.54412 0.75065,-12.54676 0.75067,-3.00264 3.75331,-5.46908 l 32.81463,-26.91659 q 3.64607,-3.00264 3.64607,-5.89804 l 0,-3.53884 q 0,-3.21712 -3.64607,-3.21712 l -10.83096,0 q -12.86848,0 -21.98367,9.7586 0,-4.50396 2.8954,-10.402 l 6.00532,-12.33231 q 5.04015,-10.18755 15.22767,-10.18755 l 25.73696,0 q 7.93555,0 12.22507,5.04015 4.28948,4.93292 4.28948,12.76124 l 0,88.4708 q 0,12.54676 5.25463,18.33756 z m -35.17383,-25.09352 0,-36.56794 -7.29215,5.6836 q -3.96776,3.00264 -3.96776,10.50924 l 0,15.65667 q 0,4.71843 4.82568,4.71843 l 6.43423,0 z"
         style="font-style:normal;font-variant:normal;font-weight:normal;font-stretch:normal;font-size:68.75px;line-height:125%;font-family:Corleone;-inkscape-font-specification:Corleone;letter-spacing:0px;word-spacing:0px;fill:#ffffff;fill-opacity:1;stroke:none;stroke-width:1px;stroke-linecap:butt;stroke-linejoin:miter;stroke-opacity:1"
         id="path4804"
         inkscape:connector-curvature="0" />
    </g>
  </g>
</svg>
