<?xml version="1.0" encoding="UTF-8" standalone="no"?>
<!-- Created with Inkscape (http://www.inkscape.org/) -->

<svg
   xmlns:dc="http://purl.org/dc/elements/1.1/"
   xmlns:cc="http://creativecommons.org/ns#"
   xmlns:rdf="http://www.w3.org/1999/02/22-rdf-syntax-ns#"
   xmlns:svg="http://www.w3.org/2000/svg"
   xmlns="http://www.w3.org/2000/svg"
   xmlns:sodipodi="http://sodipodi.sourceforge.net/DTD/sodipodi-0.dtd"
   xmlns:inkscape="http://www.inkscape.org/namespaces/inkscape"
   width="210mm"
   height="297mm"
   viewBox="0 0 744.09448819 1052.3622047"
   id="svg4417"
   version="1.1"
   inkscape:version="0.91 r13725"
   sodipodi:docname="dos_carte.svg">
  <defs
     id="defs4419" />
  <sodipodi:namedview
     id="base"
     pagecolor="#ffffff"
     bordercolor="#666666"
     borderopacity="1.0"
     inkscape:pageopacity="0.0"
     inkscape:pageshadow="2"
     inkscape:zoom="0.5"
     inkscape:cx="102.73833"
     inkscape:cy="425.18138"
     inkscape:document-units="px"
     inkscape:current-layer="layer5"
     showgrid="false"
     inkscape:window-width="1680"
     inkscape:window-height="987"
     inkscape:window-x="-8"
     inkscape:window-y="-8"
     inkscape:window-maximized="1" />
  <metadata
     id="metadata4422">
    <rdf:RDF>
      <cc:Work
         rdf:about="">
        <dc:format>image/svg+xml</dc:format>
        <dc:type
           rdf:resource="http://purl.org/dc/dcmitype/StillImage" />
        <dc:title></dc:title>
      </cc:Work>
    </rdf:RDF>
  </metadata>
  <g
     inkscape:label="Calque 1"
     inkscape:groupmode="layer"
     id="layer1"
     style="display:inline;opacity:1" />
  <g
     inkscape:groupmode="layer"
     id="layer6"
     inkscape:label="Calque 2"
     style="display:inline;opacity:1" />
  <g
     inkscape:groupmode="layer"
     id="layer5"
     inkscape:label="Layer 1"
     style="display:inline">
    <flowRoot
       xml:space="preserve"
       id="flowRoot4376"
       style="font-style:normal;font-weight:normal;font-size:25px;line-height:125%;font-family:sans-serif;letter-spacing:0px;word-spacing:0px;fill:#000000;fill-opacity:1;stroke:none;stroke-width:1px;stroke-linecap:butt;stroke-linejoin:miter;stroke-opacity:1"><flowRegion
         id="flowRegion4378"><rect
           id="rect4380"
           width="191"
           height="87"
           x="89"
           y="117.36221" /></flowRegion><flowPara
         id="flowPara4382"></flowPara></flowRoot>    <g
       id="g4505"
       transform="matrix(3.1945018,0,0,3.1945018,-196.58206,-270.64341)">
      <g
         style="display:inline;opacity:1;fill:#000000"
         id="g4208">
        <path
           inkscape:connector-curvature="0"
           style="opacity:1;fill:#000000;fill-opacity:1;stroke:#000000;stroke-width:1;stroke-linejoin:round;stroke-miterlimit:4;stroke-dasharray:none;stroke-opacity:1"
           d="m 66.403184,129.53493 0,233.38282 225.000006,0 0,-233.38282 -225.000006,0 z"
           id="rect4218-9" />
        <path
           inkscape:connector-curvature="0"
           style="opacity:1;fill:#000000;fill-opacity:1;stroke:#000000;stroke-width:1;stroke-linejoin:round;stroke-miterlimit:4;stroke-dasharray:none;stroke-opacity:1"
           d="m 66.403183,129.53263 225.000007,0 0,-21.55078 c 0,-10.91269 -8.78458,-19.69727 -19.69726,-19.69727 l -185.603537,0 c -10.91268,0 -19.69921,8.78458 -19.69921,19.69727 l 0,21.55078 z"
           id="rect4218" />
        <path
           inkscape:connector-curvature="0"
           style="opacity:1;fill:#000000;fill-opacity:1;stroke:#000000;stroke-width:1;stroke-linejoin:round;stroke-miterlimit:4;stroke-dasharray:none;stroke-opacity:1"
           d="m 66.403184,362.91764 225.000006,0 0,21.55078 c 0,10.91269 -8.78458,19.69727 -19.69725,19.69727 l -185.603546,0 c -10.91268,0 -19.69921,-8.78458 -19.69921,-19.69727 l 0,-21.55078 z"
           id="rect4218-1" />
      </g>
      <path
         style="display:inline;opacity:0.28999999;fill:#ffff00;fill-opacity:1;fill-rule:evenodd;stroke:#ffffff;stroke-width:0.95014161px;stroke-linecap:butt;stroke-linejoin:miter;stroke-opacity:0.2982456"
         d="M 71.209569,397.86754 286.30254,94.001734"
         id="path4870"
         inkscape:connector-curvature="0" />
      <path
         style="display:inline;opacity:0.28999999;fill:#ffff00;fill-opacity:1;fill-rule:evenodd;stroke:#ffffff;stroke-width:0.9898209px;stroke-linecap:butt;stroke-linejoin:miter;stroke-opacity:0.2982456"
         d="M 66.288262,341.51109 245.27048,88.263196"
         id="path4872"
         inkscape:connector-curvature="0" />
      <path
         style="display:inline;opacity:0.28999999;fill:#ffff00;fill-opacity:1;fill-rule:evenodd;stroke:#ffffff;stroke-width:0.9898209px;stroke-linecap:butt;stroke-linejoin:miter;stroke-opacity:0.2982456"
         d="M 66.288262,278.18802 200.19357,88.263196"
         id="path4874"
         inkscape:connector-curvature="0" />
      <path
         style="display:inline;opacity:0.28999999;fill:#ffff00;fill-opacity:1;fill-rule:evenodd;stroke:#ffffff;stroke-width:0.9898209px;stroke-linecap:butt;stroke-linejoin:miter;stroke-opacity:0.2982456"
         d="M 66.288262,214.87259 156.66213,88.263196"
         id="path4876"
         inkscape:connector-curvature="0" />
      <path
         style="display:inline;opacity:0.28999999;fill:#ffff00;fill-opacity:1;fill-rule:evenodd;stroke:#ffffff;stroke-width:0.9898209px;stroke-linecap:butt;stroke-linejoin:miter;stroke-opacity:0.2982456"
         d="M 66.288262,151.60006 111.58523,88.263196"
         id="path4878"
         inkscape:connector-curvature="0" />
      <path
         style="display:inline;opacity:0.28999999;fill:#ffff00;fill-opacity:1;fill-rule:evenodd;stroke:#ffffff;stroke-width:0.9898209px;stroke-linecap:butt;stroke-linejoin:miter;stroke-opacity:0.2982456"
         d="M 111.58523,404.81888 290.36382,151.60006"
         id="path4880"
         inkscape:connector-curvature="0" />
      <path
         style="display:inline;opacity:0.28999999;fill:#ffff00;fill-opacity:1;fill-rule:evenodd;stroke:#ffffff;stroke-width:0.9898209px;stroke-linecap:butt;stroke-linejoin:miter;stroke-opacity:0.2982456"
         d="M 156.66213,404.81888 290.36382,214.87259"
         id="path4882"
         inkscape:connector-curvature="0" />
      <path
         style="display:inline;opacity:0.28999999;fill:#ffff00;fill-opacity:1;fill-rule:evenodd;stroke:#ffffff;stroke-width:0.9898209px;stroke-linecap:butt;stroke-linejoin:miter;stroke-opacity:0.2982456"
         d="M 200.19357,404.81888 290.36382,278.18802"
         id="path4884"
         inkscape:connector-curvature="0" />
      <path
         style="display:inline;opacity:0.28999999;fill:#ffff00;fill-opacity:1;fill-rule:evenodd;stroke:#ffffff;stroke-width:0.9898209px;stroke-linecap:butt;stroke-linejoin:miter;stroke-opacity:0.2982456"
         d="m 245.27048,404.81888 45.09334,-63.30779"
         id="path4886"
         inkscape:connector-curvature="0" />
      <path
         style="display:inline;opacity:1;fill:#ffffff;fill-opacity:1;stroke:none;stroke-width:0.35433072;stroke-linejoin:round;stroke-miterlimit:4;stroke-dasharray:none;stroke-opacity:1"
         d="m 164.13272,217.42413 c -0.043,-0.0114 -0.0798,-0.01 -0.11298,0.005 -0.0442,0.0192 -0.0825,0.0604 -0.12051,0.12051 -0.24943,0.39451 -0.23791,10.80121 0.0166,14.80055 0.11248,1.76762 0.2216,6.15018 0.24253,9.73898 0.0423,7.25374 0.11786,6.75825 -1.37083,8.98576 -0.99247,1.48501 -1.44257,2.19048 -2.3229,3.63499 -1.90585,3.12727 -4.07958,6.28496 -6.44445,9.36237 -0.66955,0.87129 -1.7357,2.26998 -2.36809,3.10773 -0.63237,0.83777 -1.59609,1.92536 -2.14212,2.41629 -0.54603,0.49093 -0.99272,1.01267 -0.99272,1.15995 0,0.14727 -0.14076,0.46915 -0.31333,0.71554 -0.17258,0.2464 -0.43148,0.85822 -0.57545,1.35879 -0.51715,1.79802 -1.19883,3.64825 -1.75949,4.77534 -0.56497,1.13573 -1.23704,3.44534 -1.36481,4.69248 -0.0727,0.70889 -0.19679,1.32962 -0.27568,1.37837 -0.0789,0.0488 -0.92046,-0.0909 -1.87097,-0.31032 -2.33708,-0.53953 -4.32519,-0.73711 -7.5848,-0.7517 -2.7509,-0.0123 -4.83104,0.23248 -5.3056,0.62365 -0.1401,0.11549 -0.37488,0.49639 -0.52122,0.84661 -0.14634,0.35023 -0.61187,1.01453 -1.0334,1.47629 -0.42154,0.46177 -1.00945,1.23373 -1.30756,1.71581 -0.29812,0.48207 -0.87023,1.23694 -1.27142,1.67664 -0.4012,0.4397 -0.77821,0.9659 -0.83757,1.16897 -0.0594,0.20307 -0.20186,0.73139 -0.31635,1.17501 -0.21615,0.83752 -0.68556,1.27417 -1.61638,1.5034 -0.51588,0.12705 -0.73975,0.60734 -0.34497,0.74116 0.10534,0.0357 0.39137,0.45943 0.6342,0.94151 0.38214,0.75864 0.68256,1.01033 2.23552,1.86344 0.98682,0.5421 1.95054,1.12365 2.14212,1.29401 0.19159,0.17034 0.65544,0.44842 1.03039,0.61762 0.37496,0.16922 0.81245,0.38697 0.97315,0.48357 0.88543,0.53228 2.17056,1.00096 2.7492,1.00327 0.36322,0.002 0.84302,0.0515 1.06655,0.11148 0.40497,0.10873 0.40711,0.15649 0.55888,13.19469 0.0838,7.19646 0.2095,13.69813 0.28019,14.44803 l 0.12955,1.36331 0.16571,-1.2669 c 0.0914,-0.69634 0.21994,-7.02148 0.28622,-14.05637 0.0662,-7.03488 0.17152,-12.84058 0.2335,-12.90244 0.062,-0.0619 0.80693,0.0558 1.65554,0.26211 0.84862,0.20632 2.24469,0.51912 3.10171,0.69596 0.85703,0.17684 1.93596,0.40066 2.39822,0.49713 2.06513,0.43096 3.78821,1.75905 4.74068,3.65456 0.25162,0.50073 0.55594,0.97551 0.67789,1.05449 0.12196,0.079 0.27452,0.35341 0.33895,0.6101 0.0644,0.25669 1.24618,1.59529 2.62567,2.97366 2.82889,2.82661 4.31287,4.85555 4.31287,5.89611 0,0.69414 -1.11635,2.95295 -2.17527,4.40024 -0.72193,0.98672 -1.6747,2.43862 -2.31234,3.52502 -0.27234,0.46399 -0.6845,1.04618 -0.9159,1.2925 -0.23141,0.24632 -0.55971,0.75331 -0.72911,1.1268 -0.49688,1.0955 -1.25425,2.39007 -1.6465,2.81549 -0.20033,0.21726 -0.50392,0.70213 -0.67488,1.07708 -0.50158,1.10007 -1.21816,2.30077 -1.75647,2.94053 -0.2757,0.32764 -0.50165,0.70858 -0.50165,0.84661 0,0.13803 -0.17049,0.46667 -0.3781,0.73061 -0.20762,0.26394 -0.43545,0.70947 -0.50616,0.99122 -0.0707,0.28176 -0.25053,0.61501 -0.40071,0.73965 -0.15018,0.12464 -0.27416,0.46311 -0.27416,0.7517 0,0.43021 0.23354,0.67939 1.2925,1.38741 2.8642,1.915 3.87928,2.48744 4.63072,2.6076 0.43291,0.0693 0.93391,0.25801 1.11324,0.4203 0.21354,0.19324 0.61674,0.27487 1.16897,0.23499 0.66075,-0.0477 0.89346,-0.16156 1.07408,-0.52573 0.30648,-0.61795 3.01355,-3.3337 3.32315,-3.3337 0.13385,0 0.38808,-0.28019 0.56491,-0.62215 0.40478,-0.78275 2.19482,-2.68895 2.52476,-2.68895 0.37808,0 0.45061,1.7415 0.5664,13.63456 0.0579,5.94562 0.16688,11.555 0.24254,12.46559 0.13175,1.58567 0.14416,1.61829 0.28772,0.77882 0.0824,-0.48207 0.20459,-7.40546 0.27267,-15.38653 l 0.12353,-14.5113 0.72759,-0.77882 c 0.39956,-0.42851 0.93329,-1.08627 1.18706,-1.46122 0.25376,-0.37495 1.47126,-1.95358 2.70552,-3.50694 1.23426,-1.55336 2.60396,-3.3082 3.04296,-3.90011 0.9354,-1.26123 1.69501,-1.81949 2.24004,-1.64651 0.49858,0.15825 3.48324,3.17744 4.19236,4.24056 0.30103,0.45131 0.72638,1.02567 0.94602,1.27744 0.40663,0.46613 2.39837,1.86905 3.92422,2.76428 0.46419,0.27234 1.04462,0.67226 1.28948,0.88878 0.24486,0.21652 0.91303,0.62959 1.48534,0.91741 1.24187,0.62454 2.31786,0.67157 3.77206,0.1642 3.98577,-1.39063 4.08517,-1.38732 5.40803,0.19583 0.55159,0.66013 1.16657,1.52011 1.36632,1.91164 0.49392,0.96815 0.85965,1.2505 1.30455,1.00629 0.58186,-0.31937 2.4834,-2.34467 2.33796,-2.49011 -0.0741,-0.0741 -0.63587,-0.20303 -1.24882,-0.28621 -0.63657,-0.0864 -1.21064,-0.28119 -1.3377,-0.45494 -0.12234,-0.16732 -0.28382,-1.31749 -0.36003,-2.55489 -0.16021,-2.60176 -0.15246,-2.61977 1.42808,-3.34273 1.50971,-0.69055 2.96854,-0.57026 3.75399,0.30882 0.62095,0.69496 0.7104,1.46705 0.24705,2.12856 -0.16834,0.24041 -0.27623,0.714 -0.24253,1.06051 l 0.0602,0.62667 1.55913,-1.35878 c 0.85703,-0.7474 1.99514,-1.70626 2.53078,-2.13007 0.53564,-0.4238 2.85922,-2.61948 5.16249,-4.87928 2.30325,-2.25982 4.46186,-4.2998 4.79642,-4.53281 l 0.60709,-0.4233 2.99626,0.31032 c 1.6473,0.17035 3.52096,0.34543 4.16373,0.39017 0.64277,0.0447 1.35077,0.12074 1.5742,0.16871 0.40586,0.0871 0.40597,0.10113 0.55888,15.04156 0.0842,8.22448 0.2102,15.61044 0.27869,16.41391 l 0.12353,1.46122 0.15064,-1.36331 c 0.0829,-0.7499 0.22924,-7.76199 0.32388,-15.58236 0.10592,-8.75308 0.24842,-14.41826 0.37058,-14.73576 0.19831,-0.51546 0.19936,-0.51441 2.70251,-0.58298 3.2455,-0.0889 3.30147,-0.12368 4.60661,-2.79591 0.15697,-0.32138 0.59929,-1.02234 0.98219,-1.55763 0.38289,-0.5353 0.69596,-1.04414 0.69596,-1.12981 0,-0.16384 1.75096,-3.28035 1.93725,-3.44819 0.0595,-0.0535 0.31199,-0.49257 0.5619,-0.97465 0.24989,-0.48208 0.66748,-1.26643 0.92644,-1.74443 0.66465,-1.22681 0.63943,-2.34206 -0.0648,-2.86219 -0.2946,-0.2176 -0.88659,-0.45668 -1.3151,-0.53026 -2.62056,-0.45015 -9.53452,-2.20132 -11.93081,-3.02186 -0.34818,-0.11924 -0.8958,-0.30413 -1.21719,-0.41126 -4.61059,-1.53686 -5.70849,-2.0375 -6.75929,-3.08815 -1.04222,-1.04209 -1.39827,-1.70775 -1.61186,-3.01283 -0.0907,-0.55433 -0.18274,-1.09499 -0.20487,-1.20212 -0.12841,-0.62078 0.0332,-1.07257 0.38413,-1.07257 0.46499,0 0.69236,-0.32601 0.44741,-0.64173 -0.10027,-0.12921 -0.12832,-0.76788 -0.0618,-1.42055 0.18493,-1.81281 -0.311,-5.59307 -1.0575,-8.06535 -0.36216,-1.19942 -1.02733,-4.17227 -1.24731,-5.56922 -0.0997,-0.63314 -0.27429,-1.50121 -0.38715,-1.92972 -0.3045,-1.15616 -0.25728,-2.29807 0.12955,-3.14389 0.49049,-1.07252 1.97494,-3.51285 2.3018,-3.78411 0.15198,-0.12614 0.27679,-0.32812 0.27718,-0.44891 4.6e-4,-0.1208 0.32871,-0.65745 0.73061,-1.19309 0.40191,-0.53564 0.83312,-1.20541 0.95809,-1.48683 0.12497,-0.28142 0.47917,-0.80612 0.78634,-1.16747 0.30718,-0.36135 0.65748,-0.88756 0.77882,-1.16898 0.12133,-0.28142 0.47459,-0.80762 0.78484,-1.16898 0.31025,-0.36135 0.67459,-0.93132 0.80895,-1.26689 0.13435,-0.33559 0.49987,-0.85648 0.81346,-1.15693 0.31361,-0.30045 0.57186,-0.63934 0.57244,-0.75321 6.6e-4,-0.11387 0.13316,-0.46045 0.29526,-0.77128 0.66626,-1.2776 0.22304,-1.63496 -5.69877,-4.59758 -1.73861,-0.86981 -3.21135,-1.66351 -3.27345,-1.76402 -0.25985,-0.42047 -0.84822,-0.10901 -2.13458,1.13132 -0.7499,0.72307 -2.0046,2.03864 -2.78838,2.92245 -0.83908,0.94616 -1.57829,1.60584 -1.79565,1.60584 -0.41721,0 -0.67942,-0.76206 -0.95506,-2.77482 -0.0917,-0.66943 -0.29945,-1.87494 -0.46247,-2.67841 -0.76585,-3.77443 -1.43582,-12.952 -1.63597,-22.42902 l -0.1175,-5.57978 -1.38139,-0.0859 c -0.76005,-0.0473 -1.53584,-0.15285 -1.72332,-0.235 -0.29158,-0.12778 -0.34045,-0.0412 -0.34045,0.60257 0,0.92869 -0.30565,2.03796 -0.61311,2.22799 -0.16783,0.10373 -0.14142,0.22916 0.0949,0.46548 0.465,0.46499 0.47471,4.40308 0.012,4.86573 -0.25333,0.25334 -0.2668,0.36578 -0.0678,0.60558 0.17077,0.20576 0.29681,1.74969 0.41427,5.10825 0.43494,12.43626 0.45524,12.77521 0.79238,13.28508 0.17708,0.26782 0.38108,0.85731 0.45343,1.31058 0.0723,0.45328 0.25187,0.9247 0.39919,1.04696 0.14732,0.12227 0.26814,0.30468 0.26814,0.40523 0,0.10055 0.33955,0.90458 0.75471,1.78661 0.41516,0.88202 0.81995,1.906 0.90083,2.27619 0.0809,0.37019 0.31189,0.88186 0.51218,1.13734 0.2003,0.25549 0.36305,0.61774 0.36305,0.80443 0,0.18669 0.13741,0.45352 0.30429,0.59202 0.16688,0.1385 0.42884,0.553 0.58299,0.92193 0.15414,0.36894 0.5562,0.9854 0.8933,1.36933 0.76701,0.87358 1.86291,3.15732 2.08338,4.343 0.0918,0.49376 0.31224,1.10408 0.48958,1.35728 0.17734,0.25319 0.32237,0.58746 0.32237,0.74266 0,0.1552 0.11397,0.42139 0.25308,0.59051 0.51579,0.62714 1.89112,4.4831 2.67991,7.51401 1.98653,7.63325 2.55635,10.31616 2.5579,12.02722 7.7e-4,0.90135 0.0637,1.12517 0.32237,1.14337 0.27033,0.019 0.26591,0.0369 -0.0272,0.11298 -0.30967,0.0805 -0.34466,0.32095 -0.31936,2.17225 0.0373,2.72351 -0.22433,3.41652 -1.41151,3.74495 -0.69669,0.19274 -1.09536,0.17659 -2.30331,-0.0919 -0.80346,-0.17858 -1.83797,-0.39698 -2.3003,-0.48507 -0.46234,-0.0881 -0.98401,-0.3016 -1.15843,-0.47602 -0.29096,-0.29128 -0.34496,-0.29233 -0.66131,-0.006 -0.29006,0.26248 -0.87293,0.30902 -3.66964,0.29074 -3.39271,-0.0221 -4.04257,-0.0859 -4.83256,-0.47 -0.35408,-0.17215 -0.58004,-0.14969 -1.07106,0.10394 -0.34233,0.17684 -0.97587,0.41099 -1.4085,0.52122 -1.30783,0.33324 -2.99479,1.35737 -3.50242,2.12706 -0.25753,0.39048 -0.60821,1.28008 -0.78032,1.97642 -0.1721,0.69633 -0.39357,1.57285 -0.49109,1.94779 -0.29733,1.14315 -0.23187,9.64072 0.0798,10.38674 0.39969,0.9566 1.3367,1.64682 2.41327,1.77757 2.74345,0.3332 4.91694,1.1051 4.91694,1.74443 2e-5,0.15359 -0.12289,0.52675 -0.27416,0.83004 -0.15126,0.30328 -0.63042,1.29629 -1.06503,2.2069 -1.08519,2.27363 -2.33255,3.8644 -5.86298,7.47784 -3.43464,3.51539 -4.70295,4.59909 -5.38242,4.59909 -1.45149,0 -4.25353,-2.05207 -5.71835,-4.18784 -1.08305,-1.57914 -2.29676,-3.72265 -2.53681,-4.48008 -0.1358,-0.42851 -0.32714,-0.87974 -0.42481,-1.00327 -0.22925,-0.28995 -0.52449,-1.27598 -0.75019,-2.50367 -0.0985,-0.53564 -0.27351,-5.66111 -0.39016,-11.39001 -0.11665,-5.72889 -0.25506,-10.45804 -0.30731,-10.51026 -0.18004,-0.18004 -0.76117,0.32142 -1.73238,1.49738 -2.35046,2.84599 -3.93033,4.82827 -4.38216,5.49691 -2.47099,3.65668 -6.66825,8.59977 -8.20997,9.66818 -0.77744,0.53877 -0.79805,0.54228 -1.0801,0.16721 -0.66511,-0.88449 0.0549,-5.39591 1.39495,-8.73872 0.34775,-0.8675 0.69583,-1.92138 0.77279,-2.34097 0.18547,-1.01123 1.41676,-4.20751 2.55337,-6.63124 0.35328,-0.75335 0.73135,-1.67679 0.84058,-2.05173 0.10923,-0.37496 0.34282,-1.07706 0.51971,-1.55915 0.32809,-0.89413 0.29531,-2.21136 -0.0648,-2.57145 -0.20066,-0.20065 -0.89098,1.1439 -1.47478,2.87424 -0.17889,0.53021 -0.58145,1.40161 -0.89481,1.93725 -0.84181,1.43896 -1.26688,2.37993 -1.73539,3.84437 -0.23092,0.7218 -0.81716,2.16887 -1.30305,3.2147 -0.48589,1.04582 -1.00741,2.1828 -1.15844,2.52625 -0.594,1.35088 -2.92197,3.29481 -3.75399,3.13486 -0.38759,-0.0745 -0.58788,-1.10401 -0.6101,-3.12732 -0.0115,-1.04524 0.0449,-1.3136 0.27718,-1.3136 0.20916,0 0.29225,-0.21441 0.29225,-0.7517 0,-1.63252 0.24802,-3.14389 0.51519,-3.14389 0.20861,0 0.26362,-0.51506 0.26362,-2.43587 0,-2.30488 0.0214,-2.43437 0.39017,-2.43437 0.37031,0 0.38865,-0.12903 0.38865,-2.62869 0,-2.49966 0.0198,-2.63021 0.39017,-2.63021 0.32463,0 0.39016,-0.12955 0.39016,-0.77882 0,-0.64926 -0.0656,-0.77881 -0.39016,-0.77881 -0.21643,0 -0.39017,-0.12993 -0.39017,-0.29225 0,-0.16231 -0.17223,-0.29224 -0.38865,-0.29224 -0.36698,0 -0.39017,0.12993 -0.39017,2.24004 0,2.1101 -0.0217,2.24004 -0.38865,2.24004 -0.49933,0 -0.54703,0.76848 -0.0497,0.80141 0.31245,0.0208 0.31247,0.0293 -0.0106,0.11299 -0.31865,0.0826 -0.34668,0.30435 -0.29224,2.31536 0.0594,2.1943 0.0543,2.22385 -0.37811,2.22346 -0.42941,-3.7e-4 -0.43837,0.0457 -0.43837,2.26716 0,1.62274 -0.0729,2.3293 -0.25458,2.48408 -0.2359,0.20095 -0.51917,0.8068 -1.42205,3.03995 -1.16491,2.88117 -2.4636,3.38982 -3.64854,1.42808 -0.41724,-0.69078 -0.48402,-0.9425 -0.30731,-1.15542 0.12425,-0.14971 0.34427,-0.27266 0.48808,-0.27266 0.57381,-10e-6 0.70859,-0.75218 0.45042,-2.50367 -0.15494,-1.05111 -0.25023,-3.77186 -0.25308,-7.23531 -0.005,-5.99597 0.17031,-7.61423 1.13282,-10.44247 0.70252,-2.06429 2.87724,-6.12112 4.05979,-7.57426 0.26154,-0.32139 0.5823,-0.78743 0.71253,-1.03491 0.13023,-0.24748 0.7778,-1.15479 1.44014,-2.01709 0.66234,-0.8623 1.36807,-1.88768 1.56818,-2.2777 0.20012,-0.39001 0.4287,-0.75237 0.50767,-0.80593 0.079,-0.0535 0.24943,-0.42017 0.37811,-0.81497 0.12868,-0.39481 0.29475,-0.74663 0.36907,-0.78033 0.0744,-0.0337 0.47505,-0.71802 0.8918,-1.52148 0.41674,-0.80346 1.09743,-1.98236 1.51093,-2.61965 0.4135,-0.63729 0.7522,-1.25069 0.75321,-1.36331 7.7e-4,-0.11261 0.30699,-0.59015 0.6809,-1.06052 0.37391,-0.47036 0.6809,-1.00183 0.6809,-1.18253 0,-0.36975 2.76812,-5.03709 3.8745,-6.53182 1.48446,-2.00554 1.5941,-2.4192 1.59981,-6.07538 0.003,-1.80078 -0.0955,-4.92149 -0.21843,-6.93553 -0.17882,-2.92981 -0.17476,-3.72257 0.0226,-3.96037 0.19144,-0.23068 0.19467,-0.32851 0.012,-0.44137 -0.15489,-0.0957 -0.29983,-1.23944 -0.42481,-3.34576 -0.10441,-1.75982 -0.27183,-3.63713 -0.37208,-4.17277 -0.10024,-0.53564 -0.28368,-2.28867 -0.40673,-3.8956 -0.26692,-3.48574 -0.3826,-3.91852 -1.27593,-4.78438 -0.32037,-0.31051 -0.50662,-0.46587 -0.63571,-0.50013 z m 34.06006,96.09277 1.40848,0.12954 c 2.71021,0.24861 6.93405,1.03973 7.49593,1.40399 0.79051,0.51248 0.49098,1.4447 -1.12078,3.48885 -0.50681,0.64277 -1.11848,1.55643 -1.35879,2.03065 -0.48489,0.95694 -2.26273,2.93601 -2.63773,2.93601 -0.13204,0 -0.3502,0.13155 -0.48356,0.29224 -0.4895,0.58981 -0.95508,0.26208 -1.56667,-1.10269 -0.26672,-0.5952 -0.66635,-0.74183 -2.04269,-0.74568 -0.94262,-0.002 -1.58494,0.13826 -4.04623,0.88426 -1.03833,0.31468 -1.15785,0.31694 -1.44465,0.0302 -0.2868,-0.28681 -0.26141,-0.41304 0.29677,-1.53956 0.33449,-0.67508 1.09351,-1.92834 1.68718,-2.78537 0.59368,-0.85702 1.32043,-1.93731 1.61488,-2.39971 0.29445,-0.4624 0.90929,-1.24067 1.36631,-1.73087 l 0.83155,-0.8918 z"
         id="path5627"
         inkscape:connector-curvature="0" />
      <flowRoot
         transform="translate(19.444812,0)"
         style="font-style:normal;font-weight:normal;font-size:25px;line-height:125%;font-family:sans-serif;letter-spacing:0px;word-spacing:0px;fill:#ffffff;fill-opacity:1;stroke:none;stroke-width:1px;stroke-linecap:butt;stroke-linejoin:miter;stroke-opacity:1"
         id="flowRoot4384"
         xml:space="preserve"><flowRegion
           id="flowRegion4386"><rect
             style="fill:#ffffff"
             y="111.36221"
             x="99"
             height="97"
             width="165"
             id="rect4388" /></flowRegion><flowPara
           style="font-style:normal;font-variant:normal;font-weight:normal;font-stretch:normal;font-size:68.75px;font-family:Corleone;-inkscape-font-specification:Corleone"
           id="flowPara4390">Mafia</flowPara></flowRoot>    </g>
  </g>
</svg>
