<?xml version="1.0" encoding="UTF-8" standalone="no"?>
<!-- Created with Inkscape (http://www.inkscape.org/) -->

<svg
   xmlns:dc="http://purl.org/dc/elements/1.1/"
   xmlns:cc="http://creativecommons.org/ns#"
   xmlns:rdf="http://www.w3.org/1999/02/22-rdf-syntax-ns#"
   xmlns:svg="http://www.w3.org/2000/svg"
   xmlns="http://www.w3.org/2000/svg"
   xmlns:sodipodi="http://sodipodi.sourceforge.net/DTD/sodipodi-0.dtd"
   xmlns:inkscape="http://www.inkscape.org/namespaces/inkscape"
   width="30"
   height="40"
   viewBox="0 0 30.000002 40"
   id="svg2"
   version="1.1"
   inkscape:version="0.91 r13725"
   sodipodi:docname="dos_carte_mini.svg">
  <defs
     id="defs4" />
  <sodipodi:namedview
     id="base"
     pagecolor="#ffffff"
     bordercolor="#666666"
     borderopacity="1.0"
     inkscape:pageopacity="0.0"
     inkscape:pageshadow="2"
     inkscape:zoom="11.2"
     inkscape:cx="25.340703"
     inkscape:cy="10.770375"
     inkscape:document-units="mm"
     inkscape:current-layer="layer4"
     showgrid="false"
     showguides="true"
     inkscape:guide-bbox="true"
     inkscape:window-width="1280"
     inkscape:window-height="961"
     inkscape:window-x="-4"
     inkscape:window-y="-4"
     inkscape:window-maximized="1"
     units="px" />
  <metadata
     id="metadata7">
    <rdf:RDF>
      <cc:Work
         rdf:about="">
        <dc:format>image/svg+xml</dc:format>
        <dc:type
           rdf:resource="http://purl.org/dc/dcmitype/StillImage" />
        <dc:title></dc:title>
      </cc:Work>
    </rdf:RDF>
  </metadata>
  <g
     inkscape:label="Fond"
     inkscape:groupmode="layer"
     id="layer1"
     transform="translate(0,-1012.3622)"
     style="display:inline">
    <rect
       style="fill:#280b0b;fill-opacity:1;stroke:none;stroke-width:0.99921262;stroke-linejoin:bevel;stroke-miterlimit:4;stroke-dasharray:none;stroke-opacity:1"
       id="rect4018"
       width="26.136648"
       height="39.20763"
       x="1.99368"
       y="1012.8301" />
  </g>
  <g
     inkscape:groupmode="layer"
     id="layer2"
     inkscape:label="Lignes1"
     style="display:inline;opacity:0.49110323"
     transform="translate(0,-332.04727)">
    <path
       style="fill:none;fill-rule:evenodd;stroke:#483737;stroke-width:0.11897194px;stroke-linecap:butt;stroke-linejoin:miter;stroke-opacity:1"
       d="m 1.99368,332.50521 26.136652,39.20763"
       id="path4823"
       inkscape:connector-curvature="0" />
    <path
       style="fill:none;fill-rule:evenodd;stroke:#483737;stroke-width:0.11897194px;stroke-linecap:butt;stroke-linejoin:miter;stroke-opacity:1"
       d="M 7.2772142,332.50521 28.130332,363.87173"
       id="path4853"
       inkscape:connector-curvature="0" />
    <path
       style="fill:none;fill-rule:evenodd;stroke:#483737;stroke-width:0.11897194px;stroke-linecap:butt;stroke-linejoin:miter;stroke-opacity:1"
       d="m 12.535082,332.50521 15.59525,23.52351"
       id="path4855"
       inkscape:connector-curvature="0" />
    <path
       style="fill:none;fill-rule:evenodd;stroke:#483737;stroke-width:0.11897194px;stroke-linecap:butt;stroke-linejoin:miter;stroke-opacity:1"
       d="m 17.612678,332.50521 10.517654,15.68146"
       id="path4857"
       inkscape:connector-curvature="0" />
    <path
       style="fill:none;fill-rule:evenodd;stroke:#483737;stroke-width:0.11897194px;stroke-linecap:butt;stroke-linejoin:miter;stroke-opacity:1"
       d="m 22.870543,332.50521 5.259789,7.84471"
       id="path4859"
       inkscape:connector-curvature="0" />
    <path
       style="fill:none;fill-rule:evenodd;stroke:#483737;stroke-width:0.11897194px;stroke-linecap:butt;stroke-linejoin:miter;stroke-opacity:1"
       d="m 1.99368,340.34992 20.876863,31.36292"
       id="path4861"
       inkscape:connector-curvature="0" />
    <path
       style="fill:none;fill-rule:evenodd;stroke:#483737;stroke-width:0.11897194px;stroke-linecap:butt;stroke-linejoin:miter;stroke-opacity:1"
       d="m 1.99368,348.18667 15.618998,23.52617"
       id="path4863"
       inkscape:connector-curvature="0" />
    <path
       style="fill:none;fill-rule:evenodd;stroke:#483737;stroke-width:0.11897194px;stroke-linecap:butt;stroke-linejoin:miter;stroke-opacity:1"
       d="m 1.99368,356.02872 10.541402,15.68412"
       id="path4865"
       inkscape:connector-curvature="0" />
    <path
       style="fill:none;fill-rule:evenodd;stroke:#483737;stroke-width:0.11897194px;stroke-linecap:butt;stroke-linejoin:miter;stroke-opacity:1"
       d="m 1.99368,363.87173 5.2835342,7.84111"
       id="path4867"
       inkscape:connector-curvature="0" />
  </g>
  <g
     inkscape:groupmode="layer"
     id="layer3"
     inkscape:label="Lignes2"
     style="display:inline;opacity:0.19599998"
     transform="translate(0,-332.04727)">
    <path
       style="fill:#0000ff;fill-opacity:1;fill-rule:evenodd;stroke:#552200;stroke-width:0.11897194px;stroke-linecap:butt;stroke-linejoin:miter;stroke-opacity:1"
       d="M 1.99368,371.71284 28.130332,332.50521"
       id="path4870"
       inkscape:connector-curvature="0" />
    <path
       style="fill:#0000ff;fill-rule:evenodd;stroke:#552200;stroke-width:0.11897194px;stroke-linecap:butt;stroke-linejoin:miter;stroke-opacity:1"
       d="M 1.99368,363.87173 22.870543,332.50521"
       id="path4872"
       inkscape:connector-curvature="0" />
    <path
       style="fill:#0000ff;fill-rule:evenodd;stroke:#552200;stroke-width:0.11897194px;stroke-linecap:butt;stroke-linejoin:miter;stroke-opacity:1"
       d="M 1.99368,356.02872 17.612678,332.50521"
       id="path4874"
       inkscape:connector-curvature="0" />
    <path
       style="fill:#0000ff;fill-rule:evenodd;stroke:#552200;stroke-width:0.11897194px;stroke-linecap:butt;stroke-linejoin:miter;stroke-opacity:1"
       d="M 1.99368,348.18667 12.535082,332.50521"
       id="path4876"
       inkscape:connector-curvature="0" />
    <path
       style="fill:#0000ff;fill-rule:evenodd;stroke:#552200;stroke-width:0.11897194px;stroke-linecap:butt;stroke-linejoin:miter;stroke-opacity:1"
       d="m 1.99368,340.34992 5.2835342,-7.84471"
       id="path4878"
       inkscape:connector-curvature="0" />
    <path
       style="fill:#0000ff;fill-rule:evenodd;stroke:#552200;stroke-width:0.11897194px;stroke-linecap:butt;stroke-linejoin:miter;stroke-opacity:1"
       d="M 7.2772142,371.71284 28.130332,340.34992"
       id="path4880"
       inkscape:connector-curvature="0" />
    <path
       style="fill:#0000ff;fill-rule:evenodd;stroke:#552200;stroke-width:0.11897194px;stroke-linecap:butt;stroke-linejoin:miter;stroke-opacity:1"
       d="m 12.535082,371.71284 15.59525,-23.52617"
       id="path4882"
       inkscape:connector-curvature="0" />
    <path
       style="fill:#0000ff;fill-rule:evenodd;stroke:#552200;stroke-width:0.11897194px;stroke-linecap:butt;stroke-linejoin:miter;stroke-opacity:1"
       d="M 17.612678,371.71284 28.130332,356.02872"
       id="path4884"
       inkscape:connector-curvature="0" />
    <path
       style="fill:#0000ff;fill-rule:evenodd;stroke:#552200;stroke-width:0.11897194px;stroke-linecap:butt;stroke-linejoin:miter;stroke-opacity:1"
       d="m 22.870543,371.71284 5.259789,-7.84111"
       id="path4886"
       inkscape:connector-curvature="0" />
  </g>
  <g
     style="display:inline"
     transform="translate(0,-1012.3622)"
     id="g4891"
     inkscape:groupmode="layer"
     inkscape:label="ContourFond">
    <rect
       y="1012.8201"
       x="1.99368"
       height="39.20763"
       width="26.136648"
       id="rect4893"
       style="fill:none;fill-opacity:1;stroke:#1a1a1a;stroke-width:0.32965538;stroke-linejoin:round;stroke-miterlimit:4;stroke-dasharray:none;stroke-opacity:1" />
  </g>
  <g
     inkscape:groupmode="layer"
     id="layer9"
     inkscape:label="Logo"
     style="display:inline;opacity:1"
     transform="translate(0,-332.04727)">
    <path
       style="fill:#800000;fill-opacity:1;stroke:none;stroke-width:2.77086616;stroke-linejoin:round;stroke-miterlimit:4;stroke-dasharray:none;stroke-opacity:1"
       d="m 8.5464319,339.52205 c -0.00193,0.002 -0.00388,0.004 -0.00581,0.005 -1.958e-4,4e-4 -2.617e-4,0.001 -4.63e-4,0.001 5.637e-4,2e-5 0.00107,1.6e-4 0.00163,1.6e-4 0.00322,0 0.00598,-0.001 0.00906,-0.002 -6.844e-4,-10e-4 -0.00322,-0.004 -0.00441,-0.005 z m 0.00535,0.003 c -7.448e-4,-1.7e-4 0.00143,10e-4 0.00163,10e-4 4.63e-4,-10e-5 9.26e-4,-1.3e-4 0.00141,-1.6e-4 -0.00103,-4e-4 -0.00197,-0.001 -0.00302,-0.001 z"
       id="path5591"
       inkscape:connector-curvature="0" />
    <path
       style="display:inline;opacity:0.75;fill:#782121;fill-opacity:1;stroke:none;stroke-width:0.35433072;stroke-linejoin:round;stroke-miterlimit:4;stroke-dasharray:none;stroke-opacity:1"
       d="m 12.783635,345.25939 c -0.0066,-0.002 -0.01231,-10e-4 -0.01743,8.1e-4 -0.0068,0.003 -0.01273,0.009 -0.01859,0.0186 -0.03847,0.0608 -0.0367,1.66609 0.0025,2.283 0.01735,0.27266 0.03418,0.94868 0.03741,1.50225 0.0065,1.11891 0.01818,1.04247 -0.211454,1.38607 -0.15309,0.22907 -0.222518,0.33789 -0.35831,0.56071 -0.293981,0.48239 -0.629281,0.96946 -0.994066,1.44415 -0.103279,0.1344 -0.267735,0.35016 -0.365281,0.47938 -0.09754,0.12923 -0.2462,0.29699 -0.330426,0.37272 -0.08423,0.0757 -0.15313,0.1562 -0.15313,0.17892 0,0.0227 -0.02171,0.0724 -0.04833,0.11038 -0.02662,0.038 -0.06656,0.13237 -0.08876,0.20959 -0.07977,0.27734 -0.184922,0.56275 -0.2714051,0.73661 -0.087147,0.17518 -0.1908154,0.53145 -0.2105243,0.72382 -0.011206,0.10934 -0.030355,0.20509 -0.042524,0.21261 -0.012168,0.007 -0.1419823,-0.014 -0.2885997,-0.0478 -0.3604982,-0.0833 -0.6671673,-0.1137 -1.1699678,-0.11596 -0.42433,-0.002 -0.7451962,0.0358 -0.8183974,0.0962 -0.021609,0.0178 -0.057826,0.0766 -0.080399,0.1306 -0.022573,0.0541 -0.094381,0.15649 -0.1594036,0.22772 -0.065023,0.0712 -0.1557104,0.1903 -0.2016941,0.26466 -0.045986,0.0743 -0.134234,0.1908 -0.1961183,0.25863 -0.061885,0.0679 -0.1200402,0.14898 -0.1291964,0.18031 -0.00916,0.0313 -0.031137,0.11282 -0.048798,0.18124 -0.033341,0.1292 -0.1057495,0.19655 -0.2493294,0.23192 -0.079576,0.0196 -0.1141076,0.0936 -0.053211,0.11431 0.016249,0.005 0.060369,0.0709 0.097826,0.14523 0.058945,0.11703 0.1052868,0.15585 0.344833,0.28744 0.1522187,0.0837 0.3008732,0.17333 0.3304257,0.1996 0.029553,0.0263 0.1011024,0.0692 0.1589396,0.0953 0.057837,0.0261 0.1253215,0.0597 0.1501093,0.0746 0.1365797,0.0821 0.334813,0.15441 0.4240693,0.15476 0.056027,1.6e-4 0.1300363,0.008 0.1645155,0.0172 0.062469,0.0168 0.062798,0.0242 0.086208,2.0353 0.012922,1.11006 0.032316,2.11295 0.04322,2.22863 l 0.019982,0.21029 0.025561,-0.19542 c 0.014095,-0.10741 0.033926,-1.08307 0.044149,-2.16821 0.010218,-1.08515 0.026457,-1.98069 0.036017,-1.99022 0.00956,-0.009 0.1244709,0.009 0.255371,0.0404 0.1309,0.0318 0.3462463,0.08 0.4784431,0.10736 0.1321983,0.0273 0.2986258,0.0618 0.3699293,0.0767 0.3185498,0.0665 0.5843377,0.27133 0.7312589,0.56371 0.03881,0.0772 0.08575,0.15048 0.104566,0.16267 0.01881,0.0122 0.04235,0.0545 0.05228,0.0941 0.01,0.0396 0.192226,0.24608 0.405015,0.45869 0.43636,0.43602 0.665267,0.74899 0.665267,0.90949 0,0.10707 -0.172198,0.4555 -0.335539,0.67874 -0.111358,0.1522 -0.258325,0.37617 -0.356682,0.54375 -0.042,0.0716 -0.105586,0.16137 -0.14128,0.19937 -0.03569,0.038 -0.08633,0.11619 -0.112466,0.1738 -0.07664,0.16899 -0.19347,0.36868 -0.253975,0.4343 -0.0309,0.0335 -0.07773,0.10831 -0.104101,0.16614 -0.07737,0.16969 -0.1879034,0.35491 -0.2709399,0.45358 -0.042526,0.0505 -0.077379,0.10931 -0.077379,0.1306 0,0.0212 -0.026299,0.072 -0.058324,0.11269 -0.032025,0.0407 -0.067168,0.10944 -0.078075,0.1529 -0.01091,0.0435 -0.038645,0.0948 -0.06181,0.11409 -0.023166,0.0192 -0.042292,0.0714 -0.042292,0.11596 0,0.0663 0.036025,0.10479 0.1993709,0.21401 0.4418076,0.29539 0.5983866,0.38369 0.7142966,0.40222 0.06677,0.0107 0.144057,0.0398 0.171719,0.0648 0.03293,0.0298 0.09513,0.0424 0.180316,0.0362 0.101922,-0.007 0.137817,-0.025 0.165678,-0.0812 0.04728,-0.0953 0.464845,-0.51424 0.512602,-0.51424 0.02065,0 0.05987,-0.0432 0.08714,-0.096 0.06244,-0.12074 0.338555,-0.41478 0.389447,-0.41478 0.05833,0 0.06951,0.26863 0.08737,2.10316 0.009,0.91712 0.02575,1.78238 0.03741,1.92284 0.02033,0.24459 0.02224,0.24962 0.04438,0.12013 0.01272,-0.0744 0.03155,-1.14231 0.04206,-2.3734 l 0.01906,-2.23839 0.112234,-0.12014 c 0.06163,-0.0661 0.143961,-0.16756 0.183105,-0.22539 0.03915,-0.0578 0.226945,-0.30134 0.417332,-0.54095 0.190385,-0.23961 0.401665,-0.51029 0.469381,-0.6016 0.144287,-0.19455 0.261458,-0.28065 0.34553,-0.25397 0.07691,0.0244 0.537296,0.49012 0.646678,0.65411 0.04643,0.0696 0.112047,0.15821 0.145926,0.19704 0.06272,0.0719 0.369952,0.28831 0.605316,0.4264 0.0716,0.042 0.161136,0.10369 0.198906,0.13709 0.03777,0.0334 0.140835,0.0972 0.229115,0.14152 0.191562,0.0964 0.357534,0.10359 0.581847,0.0253 0.614811,-0.2145 0.630144,-0.21399 0.834197,0.0302 0.08509,0.10181 0.179946,0.23447 0.210757,0.29486 0.07619,0.14934 0.132604,0.1929 0.201229,0.15522 0.08976,-0.0492 0.383069,-0.36167 0.360636,-0.3841 -0.01143,-0.0115 -0.09809,-0.0313 -0.192634,-0.0442 -0.0982,-0.0133 -0.186744,-0.0434 -0.206342,-0.0702 -0.01887,-0.0258 -0.04378,-0.20323 -0.05554,-0.39409 -0.02472,-0.40133 -0.02352,-0.40411 0.220283,-0.51563 0.232876,-0.10652 0.457902,-0.088 0.579061,0.0476 0.09578,0.10719 0.109578,0.22629 0.03811,0.32833 -0.02597,0.0371 -0.04261,0.11014 -0.03741,0.16359 l 0.0093,0.0967 0.240499,-0.2096 c 0.132199,-0.11528 0.307754,-0.26319 0.390376,-0.32856 0.08263,-0.0653 0.441041,-0.40406 0.796323,-0.75264 0.355281,-0.34857 0.688249,-0.66324 0.739856,-0.69919 l 0.09364,-0.0653 0.462177,0.0479 c 0.254098,0.0263 0.543115,0.0533 0.642264,0.0602 0.09915,0.007 0.208357,0.0186 0.242823,0.026 0.0626,0.0135 0.06262,0.0156 0.08621,2.32019 0.01299,1.26864 0.03242,2.40793 0.04299,2.53187 l 0.01906,0.2254 0.02324,-0.2103 c 0.01277,-0.11567 0.03536,-1.1973 0.04996,-2.4036 0.01635,-1.35018 0.03832,-2.22404 0.05717,-2.27302 0.03059,-0.0795 0.03075,-0.0793 0.416866,-0.0899 0.500623,-0.0137 0.509256,-0.0191 0.710578,-0.43127 0.02421,-0.0495 0.09244,-0.1577 0.151505,-0.24028 0.05906,-0.0826 0.10735,-0.16105 0.10735,-0.17427 0,-0.0253 0.270091,-0.506 0.298826,-0.53188 0.0092,-0.008 0.04813,-0.076 0.08668,-0.15035 0.03854,-0.0744 0.102961,-0.19535 0.142904,-0.26909 0.102525,-0.18923 0.09864,-0.36126 -0.01,-0.44149 -0.04545,-0.0335 -0.136757,-0.0705 -0.202855,-0.0817 -0.404225,-0.0695 -1.470718,-0.33956 -1.840348,-0.46613 -0.0537,-0.0184 -0.13818,-0.0469 -0.187754,-0.0634 -0.711191,-0.23706 -0.880545,-0.31429 -1.042632,-0.47634 -0.160765,-0.16075 -0.215685,-0.26343 -0.24863,-0.46474 -0.01402,-0.0855 -0.02819,-0.16891 -0.0316,-0.18543 -0.0198,-0.0958 0.0051,-0.16545 0.05925,-0.16545 0.07173,0 0.106795,-0.0502 0.06902,-0.099 -0.01547,-0.0199 -0.01979,-0.11845 -0.0096,-0.21913 0.02852,-0.27963 -0.04797,-0.86274 -0.16312,-1.24408 -0.05587,-0.18503 -0.158468,-0.64359 -0.192401,-0.85907 -0.01538,-0.0977 -0.04231,-0.23156 -0.05972,-0.29766 -0.04697,-0.17834 -0.03969,-0.35448 0.01999,-0.48496 0.07566,-0.16543 0.304638,-0.54186 0.355058,-0.5837 0.02345,-0.0194 0.0427,-0.0506 0.04276,-0.0693 7e-5,-0.0186 0.0507,-0.10142 0.112698,-0.18404 0.06199,-0.0827 0.128509,-0.18594 0.147786,-0.22935 0.01928,-0.0434 0.07391,-0.12434 0.121294,-0.18008 0.04738,-0.0558 0.101418,-0.13691 0.120133,-0.18032 0.01872,-0.0434 0.07321,-0.12458 0.121066,-0.18031 0.04785,-0.0558 0.104055,-0.14366 0.124778,-0.19543 0.02073,-0.0517 0.0771,-0.13211 0.125481,-0.17846 0.04838,-0.0463 0.08821,-0.0987 0.0883,-0.11617 1.02e-4,-0.0176 0.02054,-0.0711 0.04555,-0.11898 0.102773,-0.19707 0.0344,-0.2522 -0.879045,-0.70918 -0.268182,-0.13417 -0.495356,-0.2566 -0.504933,-0.27211 -0.04008,-0.0648 -0.130841,-0.0168 -0.329264,0.17451 -0.115672,0.11154 -0.309213,0.31447 -0.430114,0.4508 -0.129426,0.14594 -0.243451,0.2477 -0.27698,0.2477 -0.06436,0 -0.1048,-0.11755 -0.14732,-0.42802 -0.01414,-0.10326 -0.04619,-0.28921 -0.07133,-0.41315 -0.118134,-0.58222 -0.221479,-1.99787 -0.252354,-3.45972 l -0.01812,-0.86068 -0.21308,-0.0133 c -0.117241,-0.007 -0.236907,-0.0236 -0.265826,-0.0363 -0.04497,-0.0197 -0.05252,-0.006 -0.05252,0.0929 0,0.14326 -0.04715,0.31436 -0.09457,0.34368 -0.02588,0.016 -0.02182,0.0353 0.01463,0.0718 0.07173,0.0717 0.07323,0.67918 0.0019,0.75054 -0.03907,0.0391 -0.04115,0.0564 -0.01045,0.0934 0.02634,0.0317 0.04578,0.2699 0.0639,0.78796 0.06708,1.91832 0.07022,1.9706 0.122226,2.04925 0.02732,0.0413 0.05878,0.13224 0.06994,0.20216 0.01117,0.07 0.03885,0.14263 0.06158,0.16149 0.02272,0.0188 0.04136,0.047 0.04136,0.0625 0,0.0155 0.05238,0.13954 0.116415,0.27559 0.06404,0.13605 0.12648,0.294 0.138955,0.3511 0.01247,0.0571 0.04811,0.13603 0.079,0.17544 0.0309,0.0395 0.056,0.0953 0.056,0.12409 0,0.0288 0.02119,0.07 0.04694,0.0913 0.02575,0.0213 0.06615,0.0853 0.08993,0.14221 0.02378,0.0569 0.08579,0.15199 0.137793,0.21121 0.118312,0.13475 0.287356,0.48702 0.321363,0.66992 0.01416,0.0761 0.04817,0.1703 0.07552,0.20937 0.02736,0.0391 0.04973,0.0906 0.04973,0.11455 0,0.024 0.01758,0.065 0.03903,0.0911 0.07956,0.0968 0.291708,0.69153 0.41338,1.15904 0.306425,1.17745 0.394321,1.59129 0.39456,1.85522 1.18e-4,0.13903 0.0099,0.17356 0.04973,0.17637 0.0417,0.003 0.04102,0.006 -0.0042,0.0174 -0.04776,0.0124 -0.05317,0.0495 -0.04926,0.33507 0.0057,0.4201 -0.0346,0.527 -0.217731,0.57766 -0.107464,0.0297 -0.16896,0.0272 -0.355288,-0.0142 -0.123936,-0.0276 -0.283508,-0.0612 -0.354824,-0.0748 -0.07131,-0.0136 -0.151787,-0.0465 -0.178691,-0.0734 -0.04488,-0.0449 -0.05321,-0.0451 -0.102008,-0.001 -0.04474,0.0405 -0.13465,0.0476 -0.566048,0.0449 -0.523332,-0.003 -0.623574,-0.0133 -0.74543,-0.0725 -0.05462,-0.0266 -0.08948,-0.0231 -0.165214,0.016 -0.05281,0.0273 -0.15053,0.0634 -0.217263,0.0804 -0.201736,0.0514 -0.461951,0.20938 -0.540254,0.3281 -0.03973,0.0602 -0.09382,0.19745 -0.120366,0.30487 -0.02655,0.1074 -0.06071,0.24261 -0.07575,0.30044 -0.04586,0.17634 -0.03576,1.4871 0.01231,1.60218 0.06165,0.14756 0.206188,0.25402 0.372251,0.27419 0.423182,0.0514 0.758449,0.17046 0.758449,0.26908 10e-7,0.0237 -0.01896,0.0813 -0.04229,0.12803 -0.02334,0.0468 -0.09725,0.19996 -0.164285,0.34042 -0.167392,0.35072 -0.359798,0.59609 -0.904375,1.15348 -0.529798,0.54225 -0.725437,0.70941 -0.830247,0.70941 -0.223893,0 -0.656115,-0.31653 -0.882064,-0.64598 -0.167063,-0.24358 -0.35428,-0.57422 -0.391307,-0.69106 -0.02095,-0.0661 -0.05046,-0.13571 -0.06552,-0.15475 -0.03536,-0.0447 -0.0809,-0.19683 -0.115718,-0.3862 -0.01519,-0.0827 -0.04219,-0.87324 -0.06019,-1.75692 -0.01799,-0.8837 -0.03935,-1.61318 -0.0474,-1.62124 -0.02777,-0.0278 -0.117412,0.0496 -0.267222,0.23098 -0.362564,0.43899 -0.606261,0.74476 -0.675956,0.8479 -0.381154,0.56405 -1.028589,1.32654 -1.266402,1.49134 -0.119921,0.0832 -0.1231,0.0837 -0.166606,0.0258 -0.102594,-0.13643 0.0085,-0.83233 0.215172,-1.34796 0.05364,-0.13382 0.107333,-0.29638 0.119204,-0.3611 0.02861,-0.15599 0.218538,-0.64902 0.393862,-1.02288 0.05449,-0.11621 0.112813,-0.25865 0.129661,-0.31648 0.01685,-0.0579 0.05288,-0.16614 0.08016,-0.2405 0.05061,-0.13793 0.04555,-0.34111 -0.01,-0.39665 -0.03095,-0.031 -0.137434,0.17645 -0.227486,0.44335 -0.0276,0.0818 -0.08969,0.2162 -0.138026,0.29883 -0.129851,0.22195 -0.195418,0.36711 -0.267688,0.593 -0.03562,0.11133 -0.126047,0.33455 -0.200996,0.49587 -0.07495,0.16132 -0.155395,0.3367 -0.178692,0.38968 -0.09163,0.20837 -0.450718,0.50823 -0.579058,0.48355 -0.05978,-0.0115 -0.09068,-0.17029 -0.09411,-0.48239 -0.0018,-0.16123 0.0069,-0.20262 0.04276,-0.20262 0.03226,0 0.04508,-0.0331 0.04508,-0.11595 0,-0.25182 0.03826,-0.48496 0.07947,-0.48496 0.03218,0 0.04067,-0.0794 0.04067,-0.37574 0,-0.35552 0.0033,-0.3755 0.06019,-0.3755 0.05712,0 0.05995,-0.0199 0.05995,-0.40548 0,-0.38558 0.003,-0.40572 0.06019,-0.40572 0.05008,0 0.06019,-0.02 0.06019,-0.12013 0,-0.10018 -0.01012,-0.12012 -0.06019,-0.12012 -0.03339,0 -0.06019,-0.02 -0.06019,-0.0451 0,-0.0251 -0.02657,-0.0451 -0.05995,-0.0451 -0.0566,0 -0.06019,0.02 -0.06019,0.34553 0,0.32548 -0.0033,0.34552 -0.05995,0.34552 -0.07702,0 -0.08438,0.11854 -0.0077,0.12361 0.0482,0.003 0.0482,0.005 -0.0016,0.0174 -0.04915,0.0128 -0.05347,0.0469 -0.04508,0.35715 0.0092,0.33848 0.0084,0.34303 -0.05832,0.34298 -0.06624,-6e-5 -0.06762,0.007 -0.06762,0.34971 0,0.2503 -0.01125,0.35929 -0.03927,0.38317 -0.03639,0.031 -0.08008,0.12445 -0.219354,0.46892 -0.179688,0.44442 -0.380015,0.52288 -0.562793,0.22028 -0.06436,-0.10655 -0.07466,-0.14538 -0.0474,-0.17823 0.01917,-0.0231 0.0531,-0.0421 0.07529,-0.0421 0.08851,0 0.109303,-0.11603 0.06948,-0.3862 -0.0239,-0.16214 -0.0386,-0.58181 -0.03904,-1.11606 -7.03e-4,-0.92489 0.02627,-1.17451 0.17474,-1.61077 0.108365,-0.31842 0.443819,-0.94419 0.626229,-1.16834 0.04034,-0.0495 0.08982,-0.12146 0.109909,-0.15964 0.02009,-0.0382 0.119978,-0.17813 0.222143,-0.31114 0.102167,-0.13301 0.211028,-0.29118 0.241895,-0.35134 0.03087,-0.0602 0.06613,-0.11604 0.07831,-0.12431 0.01218,-0.008 0.03848,-0.0648 0.05832,-0.12571 0.01985,-0.0609 0.04547,-0.11517 0.05692,-0.12037 0.01147,-0.005 0.07328,-0.11076 0.137561,-0.23469 0.06429,-0.12394 0.169281,-0.30578 0.233064,-0.40408 0.06378,-0.0983 0.116029,-0.19292 0.116184,-0.2103 1.19e-4,-0.0173 0.04735,-0.091 0.105031,-0.16359 0.05767,-0.0726 0.10503,-0.15452 0.10503,-0.1824 0,-0.057 0.426986,-0.77698 0.597648,-1.00755 0.228981,-0.30935 0.245892,-0.37316 0.246772,-0.93713 4.84e-4,-0.27777 -0.01473,-0.75915 -0.03369,-1.06982 -0.02759,-0.45193 -0.02695,-0.57421 0.0035,-0.61089 0.02953,-0.0355 0.03002,-0.0507 0.0018,-0.0681 -0.02389,-0.0148 -0.04625,-0.19118 -0.06552,-0.51608 -0.01611,-0.27146 -0.04193,-0.56103 -0.0574,-0.64366 -0.01546,-0.0827 -0.04376,-0.35303 -0.06273,-0.6009 -0.04117,-0.53769 -0.05902,-0.60444 -0.196816,-0.738 -0.04941,-0.0479 -0.07815,-0.0719 -0.09805,-0.0771 z m 5.25382,14.82247 0.217262,0.0199 c 0.418054,0.0384 1.069588,0.16037 1.156259,0.21657 0.121936,0.079 0.07573,0.22285 -0.172882,0.53816 -0.07818,0.0992 -0.172526,0.24008 -0.209597,0.31323 -0.0748,0.14761 -0.349027,0.45288 -0.406873,0.45288 -0.02037,0 -0.05402,0.0203 -0.07459,0.0451 -0.07551,0.091 -0.147323,0.0405 -0.241663,-0.17009 -0.04114,-0.0918 -0.102785,-0.11443 -0.315088,-0.11502 -0.145402,-4.1e-4 -0.244481,0.0213 -0.624139,0.1364 -0.160164,0.0485 -0.1786,0.0488 -0.222839,0.005 -0.04424,-0.0442 -0.04032,-0.0637 0.04578,-0.23748 0.05159,-0.10413 0.168673,-0.29745 0.260249,-0.42965 0.09158,-0.13219 0.203681,-0.29883 0.249096,-0.37015 0.04542,-0.0714 0.140261,-0.19138 0.210758,-0.26699 l 0.128267,-0.13757 z"
       id="path5627"
       inkscape:connector-curvature="0" />
  </g>
  <g
     inkscape:groupmode="layer"
     id="layer10"
     inkscape:label="Text"
     style="display:inline"
     transform="translate(0,-332.04727)" />
  <g
     inkscape:groupmode="layer"
     id="layer4"
     inkscape:label="Text 1"
     style="display:inline"
     transform="translate(0,-332.04727)">
    <g
       id="g4227"
       transform="matrix(0.11897195,0,0,0.11897195,-9.0340482,331.72042)">
      <path
         id="path4165-6"
         style="font-style:normal;font-variant:normal;font-weight:normal;font-stretch:normal;font-size:90px;line-height:125%;font-family:'The Godfather';-inkscape-font-specification:'The Godfather';letter-spacing:6.5px;word-spacing:0px;display:inline;opacity:0.75;fill:#782121;fill-opacity:1;stroke:none;stroke-width:0.35433072;stroke-linecap:butt;stroke-linejoin:miter;stroke-miterlimit:4;stroke-dasharray:none;stroke-opacity:1"
         d="m 146.55709,31.69692 0,59.545897 13.97461,0 -1.97754,-2.02148 1.97754,2.02148 -1.97754,-2.02148 0,-42.011722 1.97754,-1.977539 2.02148,0 2.02149,1.977539 0,42.011722 1.97753,2.02148 12.04102,0 0,-8.04199 -2.02148,-1.97754 0,-47.988281 -3.99903,-3.999024 -12.65625,0 -2.46093,2.021485 -0.92286,0 -1.97753,-1.977539 -5.71289,0 -2.28516,2.416992 z m -18.41309,0 0,59.545897 13.97461,0 -1.97754,-2.02148 1.97754,2.02148 -1.97754,-2.02148 0,-42.011722 1.97754,-1.977539 2.02149,0 2.02148,1.977539 0,42.011722 1.97754,2.02148 12.04102,0 0,-8.04199 -2.02149,-1.97754 0,-47.988281 -3.99902,-3.999024 -12.65625,0 -2.46094,2.021485 -0.92285,0 -1.97754,-1.977539 -5.71289,0 -2.28516,2.416992 z"
         inkscape:connector-curvature="0" />
      <path
         id="path4167-4"
         style="font-style:normal;font-variant:normal;font-weight:normal;font-stretch:normal;font-size:90px;line-height:125%;font-family:'The Godfather';-inkscape-font-specification:'The Godfather';letter-spacing:6.5px;word-spacing:0px;display:inline;opacity:0.75;fill:#782121;fill-opacity:1;stroke:none;stroke-width:0.35433072;stroke-linecap:butt;stroke-linejoin:miter;stroke-miterlimit:4;stroke-dasharray:none;stroke-opacity:1"
         d="m 189.00435,48.220357 -2.37304,2.768555 0.0439,0.307617 0,8.481448 1.05469,1.05468 5.31738,-4.21875 3.16406,0 0,4.21875 -2.10937,0 -4.2627,3.16407 -1.05468,1.09863 -3.16407,3.16406 0,19.07227 0.35157,1.27441 1.75781,1.88965 1.05469,1.05469 7.42675,0 1.05469,-1.05469 1.05469,1.05469 9.53613,0 0,-1.05469 -1.05469,-2.10937 0,-37.089848 -3.16406,-3.164062 -14.63379,0.08789 z m 7.20703,22.14844 2.10938,0 0,7.42676 -0.21973,1.75781 -0.43945,0.83496 -0.39551,0.57129 -2.10937,0 0,-9.53613 1.05468,-1.05469 z"
         inkscape:connector-curvature="0" />
      <path
         id="path4169-3"
         style="font-style:normal;font-variant:normal;font-weight:normal;font-stretch:normal;font-size:90px;line-height:125%;font-family:'The Godfather';-inkscape-font-specification:'The Godfather';letter-spacing:6.5px;word-spacing:0px;display:inline;opacity:0.75;fill:#782121;fill-opacity:1;stroke:none;stroke-width:0.35433072;stroke-linecap:butt;stroke-linejoin:miter;stroke-miterlimit:4;stroke-dasharray:none;stroke-opacity:1"
         d="m 218.75142,29.060201 -2.8125,2.548828 0,60.073238 12.56836,0 0,-0.96679 -3.82324,-4.83399 -0.0439,-4.79004 0,-18.36914 2.90039,-1.93359 0,0 0,-8.657227 -2.90039,-2.285156 0.0439,-13.183594 1.88965,0.04395 0.9668,0.966797 0,9.624024 7.73437,-4.833985 0,-10.59082 -2.90039,-2.900391 -13.62305,0.08789 z"
         inkscape:connector-curvature="0" />
      <path
         id="path4171-5"
         style="font-style:normal;font-variant:normal;font-weight:normal;font-stretch:normal;font-size:90px;line-height:125%;font-family:'The Godfather';-inkscape-font-specification:'The Godfather';letter-spacing:6.5px;word-spacing:0px;display:inline;opacity:0.75;fill:#782121;fill-opacity:1;stroke:none;stroke-width:0.35433072;stroke-linecap:butt;stroke-linejoin:miter;stroke-miterlimit:4;stroke-dasharray:none;stroke-opacity:1"
         d="m 238.34713,35.300435 -1.36231,1.362305 -1.3623,1.318359 0,6.94336 2.72461,2.504883 5.36132,0 1.36231,-1.362305 1.3623,-1.318359 0,-6.767579 -1.3623,-1.318359 -1.36231,-1.362305 -5.36132,0 z m 4.04297,14.809571 -6.76758,5.405271 0,2.68067 1.3623,1.3623 0,26.89453 -1.3623,1.36231 0,4.04297 10.81054,0 0,-41.748051 -4.04296,0 z"
         inkscape:connector-curvature="0" />
      <path
         id="path4173-4"
         style="font-style:normal;font-variant:normal;font-weight:normal;font-stretch:normal;font-size:90px;line-height:125%;font-family:'The Godfather';-inkscape-font-specification:'The Godfather';letter-spacing:6.5px;word-spacing:0px;display:inline;opacity:0.75;fill:#782121;fill-opacity:1;stroke:none;stroke-width:0.35433072;stroke-linecap:butt;stroke-linejoin:miter;stroke-miterlimit:4;stroke-dasharray:none;stroke-opacity:1"
         d="m 258.07467,48.220357 -2.37305,2.768555 0.0439,0.307617 0,8.481448 1.05469,1.05468 5.31738,-4.21875 3.16407,0 0,4.21875 -2.10938,0 -4.26269,3.16407 -1.05469,1.09863 -3.16406,3.16406 0,19.07227 0.35156,1.27441 1.75781,1.88965 1.05469,1.05469 7.42676,0 1.05468,-1.05469 1.05469,1.05469 9.53613,0 0,-1.05469 -1.05468,-2.10937 0,-37.089848 -3.16407,-3.164062 -14.63378,0.08789 z m 7.20703,22.14844 2.10937,0 0,7.42676 -0.21972,1.75781 -0.43946,0.83496 -0.39551,0.57129 -2.10937,0 0,-9.53613 1.05469,-1.05469 z"
         inkscape:connector-curvature="0" />
    </g>
  </g>
</svg>
