<?xml version="1.0" encoding="UTF-8" standalone="no"?>
<!-- Created with Inkscape (http://www.inkscape.org/) -->

<svg
   xmlns:dc="http://purl.org/dc/elements/1.1/"
   xmlns:cc="http://creativecommons.org/ns#"
   xmlns:rdf="http://www.w3.org/1999/02/22-rdf-syntax-ns#"
   xmlns:svg="http://www.w3.org/2000/svg"
   xmlns="http://www.w3.org/2000/svg"
   xmlns:sodipodi="http://sodipodi.sourceforge.net/DTD/sodipodi-0.dtd"
   xmlns:inkscape="http://www.inkscape.org/namespaces/inkscape"
   width="144"
   height="200"
   viewBox="0 0 144.00001 200"
   id="svg2"
   version="1.1"
   inkscape:version="0.91 r13725"
   sodipodi:docname="dos_carte.svg">
  <defs
     id="defs4" />
  <sodipodi:namedview
     id="base"
     pagecolor="#ffffff"
     bordercolor="#666666"
     borderopacity="1.0"
     inkscape:pageopacity="0.0"
     inkscape:pageshadow="2"
     inkscape:zoom="1.4"
     inkscape:cx="-2.3100921"
     inkscape:cy="16.936142"
     inkscape:document-units="mm"
     inkscape:current-layer="layer4"
     showgrid="false"
     showguides="true"
     inkscape:guide-bbox="true"
     inkscape:window-width="1280"
     inkscape:window-height="961"
     inkscape:window-x="-4"
     inkscape:window-y="-4"
     inkscape:window-maximized="1"
     units="px" />
  <metadata
     id="metadata7">
    <rdf:RDF>
      <cc:Work
         rdf:about="">
        <dc:format>image/svg+xml</dc:format>
        <dc:type
           rdf:resource="http://purl.org/dc/dcmitype/StillImage" />
        <dc:title></dc:title>
      </cc:Work>
    </rdf:RDF>
  </metadata>
  <g
     inkscape:label="Fond"
     inkscape:groupmode="layer"
     id="layer1"
     transform="translate(0,-852.36222)"
     style="display:inline">
    <rect
       style="fill:#280b0b;fill-opacity:1;stroke:none;stroke-width:0.99921262;stroke-linejoin:bevel;stroke-miterlimit:4;stroke-dasharray:none;stroke-opacity:1"
       id="rect4018"
       width="129.84097"
       height="194.77464"
       x="8.6833935"
       y="855.04181" />
  </g>
  <g
     inkscape:groupmode="layer"
     id="layer2"
     inkscape:label="Lignes1"
     style="display:inline;opacity:0.49110323"
     transform="translate(0,-172.04726)">
    <path
       style="fill:none;fill-rule:evenodd;stroke:#483737;stroke-width:0.59102577px;stroke-linecap:butt;stroke-linejoin:miter;stroke-opacity:1"
       d="M 8.6833938,174.67704 138.52438,369.4517"
       id="path4823"
       inkscape:connector-curvature="0" />
    <path
       style="fill:none;fill-rule:evenodd;stroke:#483737;stroke-width:0.59102577px;stroke-linecap:butt;stroke-linejoin:miter;stroke-opacity:1"
       d="M 34.930799,174.67704 138.52438,330.49884"
       id="path4853"
       inkscape:connector-curvature="0" />
    <path
       style="fill:none;fill-rule:evenodd;stroke:#483737;stroke-width:0.59102577px;stroke-linecap:butt;stroke-linejoin:miter;stroke-opacity:1"
       d="M 61.050696,174.67704 138.52438,291.53656"
       id="path4855"
       inkscape:connector-curvature="0" />
    <path
       style="fill:none;fill-rule:evenodd;stroke:#483737;stroke-width:0.59102577px;stroke-linecap:butt;stroke-linejoin:miter;stroke-opacity:1"
       d="m 86.275049,174.67704 52.249331,77.90195"
       id="path4857"
       inkscape:connector-curvature="0" />
    <path
       style="fill:none;fill-rule:evenodd;stroke:#483737;stroke-width:0.59102577px;stroke-linecap:butt;stroke-linejoin:miter;stroke-opacity:1"
       d="m 112.39494,174.67704 26.12944,38.97077"
       id="path4859"
       inkscape:connector-curvature="0" />
    <path
       style="fill:none;fill-rule:evenodd;stroke:#483737;stroke-width:0.59102577px;stroke-linecap:butt;stroke-linejoin:miter;stroke-opacity:1"
       d="M 8.6833938,213.64781 112.39494,369.4517"
       id="path4861"
       inkscape:connector-curvature="0" />
    <path
       style="fill:none;fill-rule:evenodd;stroke:#483737;stroke-width:0.59102577px;stroke-linecap:butt;stroke-linejoin:miter;stroke-opacity:1"
       d="M 8.6833938,252.57899 86.275049,369.4517"
       id="path4863"
       inkscape:connector-curvature="0" />
    <path
       style="fill:none;fill-rule:evenodd;stroke:#483737;stroke-width:0.59102577px;stroke-linecap:butt;stroke-linejoin:miter;stroke-opacity:1"
       d="M 8.6833938,291.53656 61.050696,369.4517"
       id="path4865"
       inkscape:connector-curvature="0" />
    <path
       style="fill:none;fill-rule:evenodd;stroke:#483737;stroke-width:0.59102577px;stroke-linecap:butt;stroke-linejoin:miter;stroke-opacity:1"
       d="M 8.6833938,330.49884 34.930799,369.4517"
       id="path4867"
       inkscape:connector-curvature="0" />
  </g>
  <g
     inkscape:groupmode="layer"
     id="layer3"
     inkscape:label="Lignes2"
     style="display:inline;opacity:0.19599998"
     transform="translate(0,-172.04726)">
    <path
       style="fill:#0000ff;fill-opacity:1;fill-rule:evenodd;stroke:#552200;stroke-width:0.59102577px;stroke-linecap:butt;stroke-linejoin:miter;stroke-opacity:1"
       d="M 8.6833938,369.4517 138.52438,174.67704"
       id="path4870"
       inkscape:connector-curvature="0" />
    <path
       style="fill:#0000ff;fill-rule:evenodd;stroke:#552200;stroke-width:0.59102577px;stroke-linecap:butt;stroke-linejoin:miter;stroke-opacity:1"
       d="M 8.6833938,330.49884 112.39494,174.67704"
       id="path4872"
       inkscape:connector-curvature="0" />
    <path
       style="fill:#0000ff;fill-rule:evenodd;stroke:#552200;stroke-width:0.59102577px;stroke-linecap:butt;stroke-linejoin:miter;stroke-opacity:1"
       d="M 8.6833938,291.53656 86.275049,174.67704"
       id="path4874"
       inkscape:connector-curvature="0" />
    <path
       style="fill:#0000ff;fill-rule:evenodd;stroke:#552200;stroke-width:0.59102577px;stroke-linecap:butt;stroke-linejoin:miter;stroke-opacity:1"
       d="M 8.6833938,252.57899 61.050696,174.67704"
       id="path4876"
       inkscape:connector-curvature="0" />
    <path
       style="fill:#0000ff;fill-rule:evenodd;stroke:#552200;stroke-width:0.59102577px;stroke-linecap:butt;stroke-linejoin:miter;stroke-opacity:1"
       d="M 8.6833938,213.64781 34.930799,174.67704"
       id="path4878"
       inkscape:connector-curvature="0" />
    <path
       style="fill:#0000ff;fill-rule:evenodd;stroke:#552200;stroke-width:0.59102577px;stroke-linecap:butt;stroke-linejoin:miter;stroke-opacity:1"
       d="M 34.930799,369.4517 138.52438,213.64781"
       id="path4880"
       inkscape:connector-curvature="0" />
    <path
       style="fill:#0000ff;fill-rule:evenodd;stroke:#552200;stroke-width:0.59102577px;stroke-linecap:butt;stroke-linejoin:miter;stroke-opacity:1"
       d="M 61.050696,369.4517 138.52438,252.57899"
       id="path4882"
       inkscape:connector-curvature="0" />
    <path
       style="fill:#0000ff;fill-rule:evenodd;stroke:#552200;stroke-width:0.59102577px;stroke-linecap:butt;stroke-linejoin:miter;stroke-opacity:1"
       d="M 86.275049,369.4517 138.52438,291.53656"
       id="path4884"
       inkscape:connector-curvature="0" />
    <path
       style="fill:#0000ff;fill-rule:evenodd;stroke:#552200;stroke-width:0.59102577px;stroke-linecap:butt;stroke-linejoin:miter;stroke-opacity:1"
       d="m 112.39494,369.4517 26.12944,-38.95286"
       id="path4886"
       inkscape:connector-curvature="0" />
  </g>
  <g
     style="display:inline"
     transform="translate(0,-852.36222)"
     id="g4891"
     inkscape:groupmode="layer"
     inkscape:label="ContourFond">
    <rect
       y="854.992"
       x="8.6833935"
       height="194.77464"
       width="129.84097"
       id="rect4893"
       style="fill:none;fill-opacity:1;stroke:#1a1a1a;stroke-width:1.63765347;stroke-linejoin:round;stroke-miterlimit:4;stroke-dasharray:none;stroke-opacity:1" />
  </g>
  <g
     inkscape:groupmode="layer"
     id="layer9"
     inkscape:label="Logo"
     style="display:inline;opacity:1"
     transform="translate(0,-172.04726)">
    <path
       style="fill:#800000;fill-opacity:1;stroke:none;stroke-width:2.77086616;stroke-linejoin:round;stroke-miterlimit:4;stroke-dasharray:none;stroke-opacity:1"
       d="m 41.235986,209.53515 c -0.0096,0.009 -0.01927,0.0176 -0.02886,0.0265 -9.73e-4,0.002 -0.0013,0.005 -0.0023,0.006 0.0028,9e-5 0.0053,8.1e-4 0.0081,8.1e-4 0.016,0 0.02969,-0.006 0.04502,-0.009 -0.0034,-0.006 -0.01602,-0.0177 -0.02193,-0.0254 z m 0.02655,0.0139 c -0.0037,-8.1e-4 0.0071,0.006 0.0081,0.007 0.0023,-4.8e-4 0.0046,-6.5e-4 0.007,-8.1e-4 -0.0051,-0.002 -0.0098,-0.005 -0.01501,-0.006 z"
       id="path5591"
       inkscape:connector-curvature="0" />
    <path
       style="display:inline;opacity:0.75;fill:#782121;fill-opacity:1;stroke:none;stroke-width:0.35433072;stroke-linejoin:round;stroke-miterlimit:4;stroke-dasharray:none;stroke-opacity:1"
       d="m 62.285455,238.03697 c -0.03298,-0.009 -0.06118,-0.007 -0.08657,0.004 -0.03387,0.0148 -0.06321,0.0462 -0.09235,0.0924 -0.191133,0.30231 -0.182309,8.27683 0.0127,11.34147 0.08619,1.35451 0.169808,4.71281 0.185849,7.46286 0.03245,5.55845 0.09031,5.17876 -1.050455,6.88568 -0.760515,1.13795 -1.105419,1.67854 -1.780004,2.78544 -1.46043,2.39639 -3.12613,4.81608 -4.938296,7.17426 -0.513069,0.66767 -1.330049,1.73947 -1.814638,2.38142 -0.484582,0.64197 -1.223062,1.47538 -1.641479,1.85158 -0.418417,0.37619 -0.760716,0.77599 -0.760716,0.88885 0,0.11285 -0.107855,0.35951 -0.240097,0.5483 -0.132242,0.18883 -0.330638,0.65765 -0.440959,1.04123 -0.396283,1.3778 -0.918649,2.79561 -1.348278,3.65929 -0.432926,0.87029 -0.947928,2.64011 -1.045837,3.59578 -0.05567,0.54322 -0.150795,1.01887 -0.211251,1.05623 -0.06045,0.0374 -0.705336,-0.0697 -1.433698,-0.2378 -1.790874,-0.41342 -3.314337,-0.56483 -5.812136,-0.57601 -2.107976,-0.009 -3.701967,0.17814 -4.065614,0.4779 -0.107353,0.0885 -0.287268,0.38037 -0.399402,0.64874 -0.112137,0.26837 -0.468867,0.77742 -0.791881,1.13127 -0.323019,0.35384 -0.773534,0.94538 -1.001971,1.31479 -0.228444,0.36941 -0.666844,0.94785 -0.974271,1.28479 -0.307434,0.33693 -0.596333,0.74015 -0.641819,0.89577 -0.04552,0.15561 -0.154683,0.56046 -0.242415,0.90039 -0.165629,0.64179 -0.525339,0.97638 -1.238612,1.15205 -0.395315,0.0974 -0.566861,0.46538 -0.264342,0.56793 0.08072,0.0274 0.299898,0.35205 0.485975,0.72147 0.29283,0.58134 0.523041,0.77421 1.713053,1.42793 0.756188,0.4154 1.49467,0.86104 1.64148,0.99158 0.146812,0.13054 0.502254,0.34362 0.789576,0.47328 0.287321,0.12967 0.622569,0.29653 0.745709,0.37055 0.678497,0.40789 1.663276,0.76702 2.106681,0.7688 0.278326,8.1e-4 0.645991,0.0394 0.817276,0.0855 0.310331,0.0834 0.311968,0.11991 0.428264,10.11092 0.06419,5.51456 0.16054,10.4967 0.214708,11.07135 l 0.09927,1.04468 0.126982,-0.9708 c 0.07002,-0.5336 0.168537,-5.38047 0.219324,-10.77122 0.05076,-5.39075 0.131432,-9.83958 0.178927,-9.88698 0.04752,-0.0474 0.618343,0.0428 1.268625,0.20085 0.650282,0.1581 1.720074,0.3978 2.376798,0.53331 0.656731,0.13551 1.483505,0.30702 1.837725,0.38094 1.582483,0.33024 2.902858,1.34794 3.632727,2.80044 0.192811,0.3837 0.426006,0.74753 0.519459,0.80804 0.09345,0.0605 0.210358,0.27081 0.259726,0.46752 0.04935,0.1967 0.954933,1.22244 2.012024,2.27867 2.16774,2.166 3.304897,3.72075 3.304897,4.51813 0,0.5319 -0.855444,2.2628 -1.666881,3.37184 -0.553207,0.7561 -1.283301,1.86868 -1.771919,2.70117 -0.208691,0.35556 -0.524524,0.80168 -0.701844,0.99042 -0.177324,0.18877 -0.428895,0.57727 -0.558708,0.86347 -0.380751,0.83946 -0.961114,1.83148 -1.261692,2.15747 -0.153508,0.16648 -0.386147,0.53804 -0.517148,0.82536 -0.384355,0.84297 -0.93346,1.76305 -1.345967,2.25328 -0.211262,0.25107 -0.384402,0.54298 -0.384402,0.64875 0,0.10577 -0.130647,0.3576 -0.289739,0.55985 -0.159093,0.20227 -0.333676,0.54367 -0.38786,0.75957 -0.0542,0.2159 -0.191977,0.47127 -0.307056,0.56679 -0.115085,0.0955 -0.210093,0.35487 -0.210093,0.57601 0,0.32966 0.178963,0.5206 0.99043,1.06315 2.194798,1.46744 2.972647,1.90611 3.548465,1.99818 0.331732,0.053 0.715644,0.19771 0.853058,0.32207 0.163631,0.14807 0.472601,0.21062 0.89577,0.18008 0.506326,-0.0366 0.684644,-0.12382 0.823051,-0.40288 0.234856,-0.47352 2.309244,-2.55457 2.546488,-2.55457 0.102563,0 0.297377,-0.21471 0.432881,-0.47674 0.310177,-0.59981 1.681865,-2.06051 1.934688,-2.06051 0.289721,0 0.345301,1.33449 0.434032,10.44799 0.04439,4.55606 0.127874,8.85445 0.185854,9.55223 0.100958,1.21507 0.110469,1.24007 0.220476,0.5968 0.06318,-0.36941 0.15677,-5.67472 0.20894,-11.79051 l 0.09466,-11.11982 0.55755,-0.5968 c 0.306175,-0.32836 0.715165,-0.83241 0.909624,-1.11972 0.194453,-0.28731 1.127411,-1.49699 2.073206,-2.68732 0.945795,-1.19032 1.995386,-2.53504 2.33178,-2.9886 0.716791,-0.96647 1.298869,-1.39426 1.716516,-1.26171 0.382058,0.12127 2.669167,2.43484 3.212551,3.24949 0.230677,0.34584 0.556622,0.78596 0.724929,0.97889 0.311594,0.35719 1.837835,1.43224 3.007074,2.11822 0.355702,0.2087 0.800485,0.51515 0.988117,0.68107 0.187634,0.16591 0.699639,0.48245 1.138193,0.703 0.951634,0.47857 1.77615,0.51461 2.890484,0.12582 3.054245,-1.06563 3.130416,-1.06309 4.144104,0.15007 0.422682,0.50585 0.893931,1.16483 1.046995,1.46486 0.37848,0.74188 0.658741,0.95825 0.999662,0.77111 0.445875,-0.24473 1.902995,-1.79669 1.791553,-1.90814 -0.05678,-0.0568 -0.487262,-0.15558 -0.956961,-0.21932 -0.487797,-0.0662 -0.927701,-0.21547 -1.025061,-0.34862 -0.09373,-0.12822 -0.21749,-1.00957 -0.27588,-1.95777 -0.122774,-1.9937 -0.116836,-2.0075 1.094313,-2.56149 1.156872,-0.52917 2.27475,-0.43698 2.876641,0.23663 0.475824,0.53255 0.544362,1.12419 0.189309,1.6311 -0.129004,0.18422 -0.211673,0.54712 -0.185845,0.81265 l 0.04616,0.48022 1.194739,-1.04122 c 0.656737,-0.57273 1.528854,-1.3075 1.939304,-1.63225 0.410465,-0.32475 2.190993,-2.00728 3.955955,-3.73893 1.764953,-1.73166 3.419064,-3.29489 3.675435,-3.47344 l 0.465205,-0.32437 2.295995,0.2378 c 1.2623,0.13054 2.69807,0.26469 3.19062,0.29898 0.49254,0.0342 1.03507,0.0925 1.20629,0.12929 0.31101,0.0668 0.31109,0.0775 0.42827,11.52615 0.0645,6.30232 0.16107,11.96208 0.21355,12.57777 l 0.0947,1.11972 0.11544,-1.0447 c 0.0634,-0.57463 0.17567,-5.94791 0.24818,-11.94056 0.0812,-6.70736 0.19037,-11.04852 0.28398,-11.29183 0.15196,-0.39498 0.15277,-0.39419 2.0709,-0.44672 2.48698,-0.0681 2.52987,-0.0948 3.52999,-2.14247 0.12028,-0.24627 0.45923,-0.78341 0.75264,-1.1936 0.2934,-0.41019 0.53329,-0.8001 0.53329,-0.86575 0,-0.12555 1.34175,-2.51369 1.4845,-2.64231 0.0456,-0.041 0.23907,-0.37745 0.43057,-0.74686 0.19149,-0.36941 0.51149,-0.97045 0.70992,-1.33674 0.50932,-0.94008 0.48999,-1.79469 -0.0496,-2.19325 -0.22575,-0.16674 -0.67938,-0.34996 -1.00774,-0.40634 -2.0081,-0.34494 -7.30619,-1.68683 -9.14243,-2.31561 -0.26681,-0.0914 -0.68645,-0.23305 -0.93272,-0.31515 -3.53304,-1.17767 -4.37435,-1.56131 -5.17956,-2.36641 -0.798644,-0.79853 -1.071474,-1.30863 -1.235141,-2.30869 -0.0696,-0.42478 -0.140029,-0.83907 -0.156999,-0.92118 -0.09839,-0.47568 0.02547,-0.82188 0.294367,-0.82188 0.356302,0 0.530531,-0.24983 0.342844,-0.49175 -0.07682,-0.099 -0.09835,-0.58842 -0.04737,-1.08856 0.141708,-1.38914 -0.238305,-4.2859 -0.810345,-6.18036 -0.277518,-0.91911 -0.787234,-3.19717 -0.955809,-4.26764 -0.07641,-0.48516 -0.210173,-1.15035 -0.296662,-1.47871 -0.233333,-0.88595 -0.197146,-1.76098 0.09927,-2.40913 0.375868,-0.82185 1.513369,-2.69185 1.763842,-2.89971 0.116463,-0.0967 0.212095,-0.25144 0.212403,-0.34399 3.49e-4,-0.0926 0.251877,-0.5038 0.55986,-0.91425 0.30797,-0.41046 0.6384,-0.9237 0.73417,-1.13934 0.0958,-0.21565 0.36718,-0.61773 0.60256,-0.89462 0.23539,-0.2769 0.50382,-0.68012 0.59679,-0.89578 0.093,-0.21565 0.36368,-0.61887 0.60143,-0.89577 0.23773,-0.2769 0.51692,-0.71365 0.61987,-0.9708 0.10296,-0.25716 0.38305,-0.65632 0.62336,-0.88654 0.24031,-0.23024 0.4382,-0.48992 0.43864,-0.57718 5.1e-4,-0.0873 0.10204,-0.35283 0.22626,-0.59102 0.51055,-0.97901 0.17091,-1.25285 -4.3669,-3.52307 -1.332265,-0.66652 -2.460818,-1.27473 -2.508395,-1.35174 -0.199117,-0.3222 -0.649988,-0.0836 -1.635705,0.86692 -0.574636,0.55407 -1.536107,1.56218 -2.136709,2.23943 -0.642962,0.72503 -1.209413,1.23053 -1.375976,1.23053 -0.319709,0 -0.520626,-0.58395 -0.731854,-2.12631 -0.07025,-0.51297 -0.229455,-1.43675 -0.354379,-2.05243 -0.58686,-2.8923 -1.100251,-9.92494 -1.253632,-17.18708 l -0.09002,-4.27571 -1.058539,-0.0658 c -0.582423,-0.0363 -1.1769,-0.11713 -1.320563,-0.18008 -0.223428,-0.0979 -0.260881,-0.0316 -0.260881,0.46174 0,0.71164 -0.234209,1.56166 -0.469813,1.70728 -0.128615,0.0794 -0.108368,0.1756 0.07268,0.3567 0.356327,0.35631 0.363757,3.37401 0.0095,3.72853 -0.194111,0.19414 -0.204437,0.2803 -0.05192,0.46405 0.130854,0.15768 0.227435,1.34078 0.317445,3.91439 0.333289,9.52976 0.348839,9.78949 0.607189,10.1802 0.135697,0.20523 0.292023,0.65694 0.34746,1.00428 0.05549,0.34734 0.193,0.70858 0.305894,0.80227 0.112895,0.0937 0.205477,0.23347 0.205477,0.31052 0,0.0771 0.260191,0.69317 0.578326,1.36905 0.318135,0.67589 0.628321,1.46055 0.690296,1.74422 0.06197,0.28368 0.238995,0.67576 0.392473,0.87154 0.153487,0.19577 0.2782,0.47336 0.2782,0.61642 0,0.14305 0.105302,0.34753 0.233179,0.45366 0.127877,0.10613 0.328607,0.42375 0.446734,0.70646 0.118126,0.2827 0.426211,0.7551 0.684528,1.04929 0.587745,0.66943 1.42752,2.41941 1.59646,3.32799 0.07033,0.37836 0.23927,0.84605 0.375162,1.04007 0.1359,0.19402 0.247034,0.45017 0.247034,0.56909 0,0.11893 0.08735,0.32291 0.193932,0.4525 0.395248,0.48057 1.449139,3.43534 2.053577,5.75789 1.522252,5.84927 1.958903,7.90516 1.960087,9.21631 5.84e-4,0.69069 0.04883,0.8622 0.247026,0.87615 0.207147,0.0145 0.203772,0.0282 -0.02085,0.0866 -0.237299,0.0617 -0.264118,0.24594 -0.244722,1.66456 0.02855,2.08698 -0.171909,2.61803 -1.081633,2.86971 -0.533857,0.14769 -0.839362,0.13531 -1.764994,-0.0704 -0.61569,-0.13684 -1.408408,-0.30419 -1.76269,-0.37169 -0.354282,-0.0675 -0.75404,-0.23112 -0.887693,-0.36477 -0.222957,-0.22321 -0.264344,-0.22401 -0.506754,-0.005 -0.222268,0.20114 -0.668913,0.23679 -2.811998,0.22279 -2.599796,-0.017 -3.097773,-0.0659 -3.703129,-0.36015 -0.271329,-0.13192 -0.444479,-0.11471 -0.820744,0.0797 -0.262325,0.1355 -0.747802,0.31492 -1.079314,0.39939 -1.002177,0.25536 -2.294867,1.04014 -2.683861,1.62995 -0.197339,0.29921 -0.466065,0.9809 -0.597949,1.5145 -0.131884,0.53359 -0.301595,1.20525 -0.376322,1.49256 -0.227833,0.87599 -0.177677,7.38757 0.06116,7.95924 0.306275,0.73303 1.024298,1.26194 1.849261,1.36213 2.102273,0.25531 3.767798,0.84682 3.767798,1.33673 8e-6,0.11769 -0.0942,0.40364 -0.210084,0.63604 -0.11592,0.2324 -0.483092,0.99333 -0.816129,1.69113 -0.831566,1.74225 -1.787399,2.96124 -4.492732,5.73017 -2.631919,2.6938 -3.603807,3.52422 -4.124477,3.52422 -1.112257,0 -3.25943,-1.57247 -4.3819,-3.20908 -0.82993,-1.21009 -1.75998,-2.85263 -1.943925,-3.43303 -0.104062,-0.32837 -0.250684,-0.67413 -0.325526,-0.7688 -0.175671,-0.22219 -0.401909,-0.97777 -0.574861,-1.91853 -0.07547,-0.41045 -0.209589,-4.33803 -0.298977,-8.72801 -0.08939,-4.38999 -0.195451,-8.01387 -0.235487,-8.05389 -0.137963,-0.13796 -0.583272,0.24631 -1.327497,1.14742 -1.801134,2.18085 -3.011768,3.69985 -3.357996,4.21222 -1.893487,2.80206 -5.109796,6.5899 -6.291199,7.4086 -0.595741,0.41287 -0.611533,0.41554 -0.827666,0.12813 -0.509665,-0.67777 0.04208,-4.13481 1.068929,-6.69637 0.266476,-0.66475 0.533206,-1.47233 0.592179,-1.79384 0.14213,-0.7749 1.085649,-3.22417 1.95662,-5.08145 0.270713,-0.57728 0.560423,-1.2849 0.644124,-1.57222 0.0837,-0.28732 0.262699,-0.82533 0.398251,-1.19474 0.251411,-0.68517 0.226291,-1.69455 -0.04964,-1.97047 -0.153761,-0.15377 -0.682741,0.87655 -1.1301,2.20249 -0.137083,0.40628 -0.445563,1.07403 -0.685685,1.48449 -0.645069,1.10265 -0.97079,1.82371 -1.329808,2.9459 -0.176953,0.55309 -0.62618,1.66197 -0.998508,2.46336 -0.372329,0.80141 -0.771969,1.67267 -0.887698,1.93584 -0.455178,1.03516 -2.239068,2.52477 -2.876632,2.40221 -0.297007,-0.0571 -0.450485,-0.84599 -0.467512,-2.39643 -0.0089,-0.80095 0.03439,-1.00659 0.212403,-1.00659 0.160273,0 0.223945,-0.16431 0.223945,-0.57602 0,-1.25098 0.190056,-2.40913 0.394781,-2.40913 0.159855,0 0.202013,-0.39468 0.202013,-1.86657 0,-1.7662 0.01638,-1.86543 0.298977,-1.86543 0.283768,0 0.297823,-0.0989 0.297823,-2.01433 0,-1.91546 0.01519,-2.0155 0.298973,-2.0155 0.248763,0 0.298977,-0.0993 0.298977,-0.59679 0,-0.49752 -0.05025,-0.59679 -0.298977,-0.59679 -0.165838,0 -0.298973,-0.0996 -0.298973,-0.22395 0,-0.12438 -0.131982,-0.22394 -0.297823,-0.22394 -0.281211,0 -0.298977,0.0996 -0.298977,1.71651 0,1.61694 -0.0166,1.71651 -0.297824,1.71651 -0.382624,0 -0.419179,0.58888 -0.03812,0.61411 0.239431,0.0159 0.239442,0.0225 -0.0081,0.0866 -0.244177,0.0633 -0.26566,0.23321 -0.22394,1.77422 0.04552,1.68148 0.04161,1.70411 -0.289745,1.70382 -0.329047,-2.9e-4 -0.335915,0.035 -0.335915,1.7373 0,1.24347 -0.05586,1.78491 -0.19508,1.90351 -0.180771,0.15399 -0.397836,0.61825 -1.089703,2.32948 -0.892651,2.2078 -1.887826,2.59758 -2.795824,1.09431 -0.319727,-0.52933 -0.370899,-0.72222 -0.235489,-0.88538 0.09521,-0.11472 0.263811,-0.20893 0.374007,-0.20893 0.439706,-10e-6 0.542987,-0.57639 0.345153,-1.91854 -0.118731,-0.80544 -0.191745,-2.89032 -0.193933,-5.54432 -0.0035,-4.59464 0.130505,-5.83469 0.868064,-8.00194 0.538335,-1.58183 2.204791,-4.69052 3.110964,-5.80405 0.200417,-0.24628 0.446213,-0.60341 0.546008,-0.79304 0.0998,-0.18964 0.59602,-0.8849 1.103556,-1.54567 0.507541,-0.66077 1.048336,-1.44652 1.201677,-1.74538 0.153348,-0.29885 0.328511,-0.57652 0.38902,-0.61756 0.06051,-0.041 0.191138,-0.32197 0.289739,-0.62451 0.09861,-0.30254 0.225866,-0.57213 0.282817,-0.59796 0.05698,-0.0258 0.364024,-0.5502 0.683373,-1.16589 0.319344,-0.61568 0.840947,-1.51906 1.157808,-2.0074 0.316861,-0.48835 0.576404,-0.95839 0.577172,-1.04469 5.92e-4,-0.0863 0.235247,-0.45222 0.521769,-0.81266 0.286518,-0.36044 0.521764,-0.76769 0.521764,-0.90617 0,-0.28331 2.121174,-3.85985 2.968982,-5.00524 1.137524,-1.53681 1.221538,-1.85381 1.225912,-4.65548 0.0024,-1.37991 -0.07319,-3.77128 -0.167378,-5.31462 -0.13703,-2.24507 -0.133921,-2.85255 0.01732,-3.03478 0.146698,-0.17677 0.149168,-0.25173 0.0092,-0.33822 -0.118691,-0.0733 -0.229756,-0.94976 -0.325526,-2.5638 -0.08002,-1.34854 -0.208306,-2.7871 -0.285122,-3.19755 -0.07682,-0.41046 -0.217386,-1.75378 -0.311672,-2.98514 -0.204536,-2.67109 -0.293184,-3.00272 -0.977734,-3.66622 -0.245494,-0.23793 -0.388215,-0.35699 -0.487135,-0.38325 z m 26.099792,73.63466 1.079306,0.0993 c 2.076801,0.19049 5.313476,0.79672 5.744035,1.07585 0.605753,0.3927 0.376233,1.10705 -0.858838,2.67346 -0.388369,0.49255 -0.85707,1.19267 -1.041228,1.55607 -0.37156,0.73329 -1.733892,2.24981 -2.021259,2.24981 -0.101172,0 -0.268344,0.10081 -0.37053,0.22395 -0.375106,0.45197 -0.73187,0.20083 -1.200531,-0.84498 -0.204381,-0.45609 -0.510616,-0.56845 -1.565285,-0.5714 -0.722322,-0.002 -1.214524,0.10594 -3.10058,0.6776 -0.795663,0.24112 -0.887247,0.24286 -1.107016,0.0231 -0.219778,-0.21977 -0.200317,-0.31651 0.227411,-1.17975 0.256305,-0.5173 0.837933,-1.47765 1.292861,-2.13438 0.454935,-0.65673 1.011838,-1.48455 1.237456,-1.83888 0.225642,-0.35432 0.696785,-0.95071 1.046995,-1.32634 l 0.637203,-0.68338 z"
       id="path5627"
       inkscape:connector-curvature="0" />
  </g>
  <g
     inkscape:groupmode="layer"
     id="layer10"
     inkscape:label="Text"
     style="display:inline"
     transform="translate(0,-172.04726)" />
  <g
     inkscape:groupmode="layer"
     id="layer4"
     inkscape:label="Text 1"
     style="display:inline"
     transform="translate(0,-172.04726)">
    <g
       id="g4227"
       transform="matrix(0.59102579,0,0,0.59102579,-46.099869,170.77837)">
      <path
         id="path4165-6"
         style="font-style:normal;font-variant:normal;font-weight:normal;font-stretch:normal;font-size:90px;line-height:125%;font-family:'The Godfather';-inkscape-font-specification:'The Godfather';letter-spacing:6.5px;word-spacing:0px;display:inline;opacity:0.75;fill:#782121;fill-opacity:1;stroke:none;stroke-width:0.35433072;stroke-linecap:butt;stroke-linejoin:miter;stroke-miterlimit:4;stroke-dasharray:none;stroke-opacity:1"
         d="m 146.55709,31.69692 0,59.545897 13.97461,0 -1.97754,-2.02148 1.97754,2.02148 -1.97754,-2.02148 0,-42.011722 1.97754,-1.977539 2.02148,0 2.02149,1.977539 0,42.011722 1.97753,2.02148 12.04102,0 0,-8.04199 -2.02148,-1.97754 0,-47.988281 -3.99903,-3.999024 -12.65625,0 -2.46093,2.021485 -0.92286,0 -1.97753,-1.977539 -5.71289,0 -2.28516,2.416992 z m -18.41309,0 0,59.545897 13.97461,0 -1.97754,-2.02148 1.97754,2.02148 -1.97754,-2.02148 0,-42.011722 1.97754,-1.977539 2.02149,0 2.02148,1.977539 0,42.011722 1.97754,2.02148 12.04102,0 0,-8.04199 -2.02149,-1.97754 0,-47.988281 -3.99902,-3.999024 -12.65625,0 -2.46094,2.021485 -0.92285,0 -1.97754,-1.977539 -5.71289,0 -2.28516,2.416992 z"
         inkscape:connector-curvature="0" />
      <path
         id="path4167-4"
         style="font-style:normal;font-variant:normal;font-weight:normal;font-stretch:normal;font-size:90px;line-height:125%;font-family:'The Godfather';-inkscape-font-specification:'The Godfather';letter-spacing:6.5px;word-spacing:0px;display:inline;opacity:0.75;fill:#782121;fill-opacity:1;stroke:none;stroke-width:0.35433072;stroke-linecap:butt;stroke-linejoin:miter;stroke-miterlimit:4;stroke-dasharray:none;stroke-opacity:1"
         d="m 189.00435,48.220357 -2.37304,2.768555 0.0439,0.307617 0,8.481448 1.05469,1.05468 5.31738,-4.21875 3.16406,0 0,4.21875 -2.10937,0 -4.2627,3.16407 -1.05468,1.09863 -3.16407,3.16406 0,19.07227 0.35157,1.27441 1.75781,1.88965 1.05469,1.05469 7.42675,0 1.05469,-1.05469 1.05469,1.05469 9.53613,0 0,-1.05469 -1.05469,-2.10937 0,-37.089848 -3.16406,-3.164062 -14.63379,0.08789 z m 7.20703,22.14844 2.10938,0 0,7.42676 -0.21973,1.75781 -0.43945,0.83496 -0.39551,0.57129 -2.10937,0 0,-9.53613 1.05468,-1.05469 z"
         inkscape:connector-curvature="0" />
      <path
         id="path4169-3"
         style="font-style:normal;font-variant:normal;font-weight:normal;font-stretch:normal;font-size:90px;line-height:125%;font-family:'The Godfather';-inkscape-font-specification:'The Godfather';letter-spacing:6.5px;word-spacing:0px;display:inline;opacity:0.75;fill:#782121;fill-opacity:1;stroke:none;stroke-width:0.35433072;stroke-linecap:butt;stroke-linejoin:miter;stroke-miterlimit:4;stroke-dasharray:none;stroke-opacity:1"
         d="m 218.75142,29.060201 -2.8125,2.548828 0,60.073238 12.56836,0 0,-0.96679 -3.82324,-4.83399 -0.0439,-4.79004 0,-18.36914 2.90039,-1.93359 0,0 0,-8.657227 -2.90039,-2.285156 0.0439,-13.183594 1.88965,0.04395 0.9668,0.966797 0,9.624024 7.73437,-4.833985 0,-10.59082 -2.90039,-2.900391 -13.62305,0.08789 z"
         inkscape:connector-curvature="0" />
      <path
         id="path4171-5"
         style="font-style:normal;font-variant:normal;font-weight:normal;font-stretch:normal;font-size:90px;line-height:125%;font-family:'The Godfather';-inkscape-font-specification:'The Godfather';letter-spacing:6.5px;word-spacing:0px;display:inline;opacity:0.75;fill:#782121;fill-opacity:1;stroke:none;stroke-width:0.35433072;stroke-linecap:butt;stroke-linejoin:miter;stroke-miterlimit:4;stroke-dasharray:none;stroke-opacity:1"
         d="m 238.34713,35.300435 -1.36231,1.362305 -1.3623,1.318359 0,6.94336 2.72461,2.504883 5.36132,0 1.36231,-1.362305 1.3623,-1.318359 0,-6.767579 -1.3623,-1.318359 -1.36231,-1.362305 -5.36132,0 z m 4.04297,14.809571 -6.76758,5.405271 0,2.68067 1.3623,1.3623 0,26.89453 -1.3623,1.36231 0,4.04297 10.81054,0 0,-41.748051 -4.04296,0 z"
         inkscape:connector-curvature="0" />
      <path
         id="path4173-4"
         style="font-style:normal;font-variant:normal;font-weight:normal;font-stretch:normal;font-size:90px;line-height:125%;font-family:'The Godfather';-inkscape-font-specification:'The Godfather';letter-spacing:6.5px;word-spacing:0px;display:inline;opacity:0.75;fill:#782121;fill-opacity:1;stroke:none;stroke-width:0.35433072;stroke-linecap:butt;stroke-linejoin:miter;stroke-miterlimit:4;stroke-dasharray:none;stroke-opacity:1"
         d="m 258.07467,48.220357 -2.37305,2.768555 0.0439,0.307617 0,8.481448 1.05469,1.05468 5.31738,-4.21875 3.16407,0 0,4.21875 -2.10938,0 -4.26269,3.16407 -1.05469,1.09863 -3.16406,3.16406 0,19.07227 0.35156,1.27441 1.75781,1.88965 1.05469,1.05469 7.42676,0 1.05468,-1.05469 1.05469,1.05469 9.53613,0 0,-1.05469 -1.05468,-2.10937 0,-37.089848 -3.16407,-3.164062 -14.63378,0.08789 z m 7.20703,22.14844 2.10937,0 0,7.42676 -0.21972,1.75781 -0.43946,0.83496 -0.39551,0.57129 -2.10937,0 0,-9.53613 1.05469,-1.05469 z"
         inkscape:connector-curvature="0" />
    </g>
  </g>
</svg>
